<?xml version="1.0" encoding="iso-8859-1"?>
<!-- Generator: Adobe Illustrator 19.0.0, SVG Export Plug-In . SVG Version: 6.00 Build 0)  -->
<svg xmlns="http://www.w3.org/2000/svg" xmlns:xlink="http://www.w3.org/1999/xlink" version="1.1" id="Layer_1" x="0px" y="0px" viewBox="0 0 512 512" style="enable-background:new 0 0 512 512;" xml:space="preserve" width="512px" height="512px">
<g>
	<g>
		<path d="M327.129,378.629c-2.234-3.555-6.927-4.627-10.483-2.394c-22.539,14.161-48.597,21.645-75.355,21.645    c-78.234,0-141.881-63.648-141.881-141.881c0-43.47,19.528-83.95,53.578-111.061c3.286-2.616,3.828-7.399,1.213-10.685    c-2.615-3.285-7.398-3.828-10.685-1.212c-37.694,30.013-59.312,74.829-59.312,122.958    c-0.002,86.619,70.468,157.089,157.088,157.089c29.624,0,58.479-8.29,83.445-23.976    C328.291,386.877,329.363,382.184,327.129,378.629z" fill="#b0976d"/>
	</g>
</g>
<g>
	<g>
		<path d="M504.396,307.762h-27.397c3.702-16.932,5.581-34.299,5.581-51.764c0-64.45-25.098-125.044-70.673-170.617    c-45.573-45.574-106.166-70.673-170.617-70.673S116.247,39.808,70.673,85.382C25.098,130.956,0,191.548,0,255.999    c0,47.958,13.906,93.775,39.795,132.863v100.824c0,4.199,3.405,7.604,7.604,7.604l456.997,0.002c4.199,0,7.604-3.405,7.604-7.604    V315.366C512,311.167,508.595,307.762,504.396,307.762z M55.003,482.082v-72.701c4.918,5.951,10.14,11.706,15.669,17.236    c24.81,24.811,54.08,43.537,85.992,55.465H55.003z M355.197,482.081h-29.492c10.1-3.768,19.953-8.222,29.492-13.337V482.081z     M496.792,482.084H370.405V370.782h126.387V482.084z M496.794,355.575H199.388v-32.603h104.269c4.199,0,7.604-3.405,7.604-7.604    c0-4.199-3.405-7.604-7.604-7.604H191.784c-4.199,0-7.604,3.405-7.604,7.604v47.811c0,4.199,3.405,7.604,7.604,7.604h163.413    v80.538c-34.453,20.136-73.742,30.762-113.906,30.762c-60.388,0-117.163-23.517-159.864-66.219    c-10.262-10.262-19.403-21.344-27.39-33.087c-0.231-0.414-0.499-0.805-0.801-1.166c-24.737-36.869-38.028-80.219-38.028-125.612    c0-60.388,23.517-117.162,66.219-159.864c42.701-42.701,99.476-66.219,159.864-66.219c60.388,0,117.162,23.518,159.864,66.219    c42.701,42.701,66.219,99.476,66.219,159.864c0,17.492-2.009,34.875-5.966,51.764h-71.763c5.797-16.566,8.737-33.927,8.737-51.764    c0-86.62-70.47-157.089-157.089-157.089c-26.744,0-53.156,6.843-76.38,19.789c-3.668,2.045-4.984,6.675-2.939,10.344    c2.044,3.668,6.675,4.984,10.344,2.939c20.965-11.686,44.816-17.863,68.975-17.863c78.234,0,141.881,63.648,141.881,141.881    c0,17.927-3.286,35.314-9.753,51.764h-44.415c-4.199,0-7.604,3.405-7.604,7.604c0,4.199,3.405,7.604,7.604,7.604h167.788V355.575z    " fill="#b0976d"/>
	</g>
</g>
<g>
</g>
<g>
</g>
<g>
</g>
<g>
</g>
<g>
</g>
<g>
</g>
<g>
</g>
<g>
</g>
<g>
</g>
<g>
</g>
<g>
</g>
<g>
</g>
<g>
</g>
<g>
</g>
<g>
</g>
</svg>
