<?xml version="1.0" encoding="iso-8859-1"?>
<!-- Generator: Adobe Illustrator 19.0.0, SVG Export Plug-In . SVG Version: 6.00 Build 0)  -->
<svg xmlns="http://www.w3.org/2000/svg" xmlns:xlink="http://www.w3.org/1999/xlink" version="1.1" id="Capa_1" x="0px" y="0px" viewBox="0 0 512 512" style="enable-background:new 0 0 512 512;" xml:space="preserve" width="512px" height="512px">
<g>
	<g>
		<path d="M386.881,412.289h-40.664c-4.391,0-7.95,3.559-7.95,7.95c0,4.391,3.559,7.95,7.95,7.95h40.664    c18.724,0,33.955,15.232,33.955,33.954c0,18.724-15.232,33.955-33.955,33.955H125.119c-18.724,0-33.955-15.232-33.955-33.955    s15.232-33.954,33.955-33.954h81.686c24.689,24.233,43.166,38.609,44.333,39.511c1.43,1.106,3.145,1.66,4.862,1.66    c1.623,0,3.248-0.496,4.636-1.492c1.796-1.289,44.478-32.15,87.803-82.887c25.526-29.891,45.885-60.46,60.513-90.853    c18.437-38.305,27.785-76.457,27.785-113.392c0-46.792-17.813-91.17-50.157-124.96c-3.037-3.172-8.069-3.282-11.241-0.245    c-3.172,3.036-3.282,8.069-0.245,11.241c29.498,30.816,45.743,71.289,45.743,113.964c0,34.47-8.789,70.238-26.123,106.312    c-13.994,29.125-33.551,58.506-58.127,87.328c-33.835,39.681-68.078,67.443-80.42,76.96c-12.27-10.089-46.67-39.644-80.661-80.436    c-38.476-46.174-84.341-116.646-84.341-190.164C91.165,89.845,165.11,15.9,256.001,15.9c33.033,0,64.9,9.733,92.156,28.147    c3.639,2.457,8.581,1.501,11.038-2.138c2.458-3.638,1.501-8.58-2.138-11.038C327.163,10.675,292.217,0,256,0    C156.342,0,75.263,81.079,75.263,180.737c0,34.774,9.354,71.584,27.802,109.405c14.613,29.957,34.946,60.639,60.437,91.194    c9.38,11.244,18.727,21.603,27.635,30.953h-66.018c-27.491,0-49.856,22.364-49.856,49.855c0,27.491,22.365,49.856,49.856,49.856    h261.762c27.491,0,49.856-22.365,49.856-49.856C436.737,434.653,414.372,412.289,386.881,412.289z" fill="#b0976d"/>
	</g>
</g>
<g>
	<g>
		<path d="M255.183,98.895c-35.946-0.001-65.19,29.244-65.19,65.189s29.244,65.189,65.19,65.189    c35.945,0,65.189-29.244,65.189-65.189C320.372,128.139,291.128,98.895,255.183,98.895z M255.183,213.373    c-27.178,0-49.29-22.111-49.29-49.289s22.112-49.289,49.29-49.289c27.178,0,49.289,22.111,49.289,49.289    S282.361,213.373,255.183,213.373z" fill="#b0976d"/>
	</g>
</g>
<g>
</g>
<g>
</g>
<g>
</g>
<g>
</g>
<g>
</g>
<g>
</g>
<g>
</g>
<g>
</g>
<g>
</g>
<g>
</g>
<g>
</g>
<g>
</g>
<g>
</g>
<g>
</g>
<g>
</g>
</svg>
