<?xml version="1.0" encoding="utf-8"?>
<!-- Generator: Adobe Illustrator 17.1.0, SVG Export Plug-In . SVG Version: 6.00 Build 0)  -->
<!DOCTYPE svg PUBLIC "-//W3C//DTD SVG 1.1//EN" "http://www.w3.org/Graphics/SVG/1.1/DTD/svg11.dtd">
<svg version="1.1" id="Calque_1" xmlns="http://www.w3.org/2000/svg" xmlns:xlink="http://www.w3.org/1999/xlink" x="0px" y="0px"
	 viewBox="0 513.6 960 231.4" enable-background="new 0 513.6 960 231.4" xml:space="preserve">
<g>
	<path fill="#444444" d="M269.6,686.1c-0.2,0-0.3-0.2-0.3-0.3v-34.7c0-0.2,0.2-0.3,0.3-0.3h1.6c0.2,0,0.3,0.2,0.3,0.3v34.7
		c0,0.2-0.2,0.3-0.3,0.3H269.6z"/>
	<path fill="#444444" d="M297.2,685.8c0,0.2-0.2,0.3-0.3,0.3h-1.6c-0.2,0-0.3-0.2-0.3-0.3V685c0-1.5,0-3.2,0-5.5v-0.6v-0.6
		c0-0.5,0-1,0-1.5c0-1.1,0-2.1,0-2.9v-0.8c0-0.2,0-0.5,0-0.6c0-0.5-0.2-0.8-0.3-1.3c-0.3-0.8-0.8-1.6-1.5-2.3s-1.5-1.1-2.3-1.5
		c-0.5-0.2-0.8-0.3-1.3-0.3h-0.2h-0.2h-0.2H289h-0.2h-0.2l0,0h-0.2h-0.2c-0.8,0-1.6,0.3-2.4,0.6c-0.6,0.3-1.3,0.8-1.8,1.5
		c-0.5,0.5-0.8,1-1.1,1.6c-0.2,0.5-0.3,1-0.5,1.5c0,0.2,0,0.3-0.2,0.5v0.2v0.2c0,0.2,0,0.3,0,0.3v0.5v11.9c0,0.2-0.2,0.3-0.3,0.3
		h-1.6c-0.2,0-0.3-0.2-0.3-0.3V665c0-0.2,0.2-0.3,0.3-0.3h1.6c0.2,0,0.3,0.2,0.3,0.3v2.7l0.2-0.2c0.6-0.8,1.5-1.3,2.4-1.8
		c1-0.5,2.1-0.8,3.2-0.8h0.2h0.2h0.2h0.2h0.2h0.2h0.2h0.2c0.6,0.2,1.1,0.2,1.8,0.5c1.1,0.5,2.3,1.1,3.1,2.1c0.8,1,1.5,1.9,1.9,3.2
		c0.2,0.6,0.3,1.1,0.5,1.8c0,0.3,0,0.6,0.2,0.8v0.8c0,0.5,0,1,0,1.5c0,0.3,0,0.8,0,1.5v0.6v0.6c0,0.5,0,1,0,1.3c0,2.1,0,4,0,5.5
		L297.2,685.8L297.2,685.8z"/>
	<path fill="#444444" d="M315.3,684.7c0.2,0.2,0.2,0.3-0.2,0.5c-1.1,0.8-2.1,1.1-3.2,1.1c-0.8,0-1.5-0.2-2.1-0.5
		c-0.8-0.5-1.6-1.1-2.1-2.1s-0.8-1.9-0.8-3.1v-13.4H304c-0.2,0-0.3-0.2-0.3-0.3v-1.6c0-0.2,0.2-0.3,0.3-0.3h2.9v-6.1
		c0-0.2,0.2-0.3,0.3-0.3h1.6c0.2,0,0.3,0.2,0.3,0.3v6.1h3.4c0.2,0,0.3,0.2,0.3,0.3v1.6c0,0.2-0.2,0.3-0.3,0.3h-3.4v13.4
		c0,1.5,0.5,2.6,1.6,3.1c1,0.5,1.9,0.3,3.1-0.3c0.2-0.2,0.3-0.2,0.5,0.2L315.3,684.7z"/>
	<path fill="#444444" d="M321.2,683.1c-2.1-2.1-3.2-4.7-3.2-7.6c0-3.1,1-5.5,3.1-7.6c2.1-2.1,4.5-3.1,7.4-3.1s5.2,1.1,7.3,3.1
		c1.9,2.1,2.9,4.5,2.9,7.4v0.5c0,0.2-0.2,0.3-0.3,0.3l-17.7,1.6c0.5,1.8,1.5,3.2,2.9,4.4c1.5,1.1,3.2,1.8,5.2,1.8
		c1.5,0,2.7-0.3,4-1.1c1.3-0.6,2.3-1.6,3.1-2.9c0.2-0.2,0.3-0.2,0.5-0.2l1.5,0.8c0.2,0.2,0.2,0.3,0.2,0.5c-1,1.6-2.3,2.7-3.9,3.7
		c-1.6,1-3.4,1.5-5.2,1.5C325.9,686.1,323.3,685.2,321.2,683.1z M322.8,669.5c-1.5,1.6-2.3,3.5-2.3,6l15.8-1.5
		c-0.2-2.1-1.1-3.7-2.6-5c-1.5-1.3-3.2-1.9-5.3-1.9C326.2,667.1,324.3,667.9,322.8,669.5z"/>
	<path fill="#444444" d="M355.7,665c0.2,0,0.3,0.2,0.3,0.5l-0.3,1.6c0,0.2-0.2,0.3-0.5,0.3c-0.3,0-0.6-0.2-1-0.2
		c-1.8,0-3.1,0.6-4.4,1.8c-1.3,1.1-1.8,2.6-1.8,4.4V686c0,0.2-0.2,0.3-0.3,0.3h-1.6c-0.2,0-0.3-0.2-0.3-0.3v-20.8
		c0-0.2,0.2-0.3,0.3-0.3h1.6c0.2,0,0.3,0.2,0.3,0.3v2.4c1.8-1.8,3.7-2.6,6.1-2.6C354.8,664.8,355.3,665,355.7,665z"/>
	<path fill="#444444" d="M373.2,686.1c-0.2,0-0.3-0.2-0.3-0.3c-0.2-1.1-0.3-2.3-0.3-3.4c-0.5,0.6-1,1.1-1.6,1.6
		c-1,0.8-2.1,1.5-3.4,1.8c-1.3,0.3-2.6,0.3-4,0.2c-0.8-0.2-1.5-0.3-2.1-0.8c-0.8-0.5-1.3-1-1.8-1.6c-0.8-1.1-1.1-2.6-1.1-4.4
		c0-0.8,0.3-1.5,0.6-2.3c0.3-0.6,0.8-1.3,1.5-1.8c0.8-0.8,2.1-1.3,3.5-1.6c1-0.2,2.1-0.3,3.2-0.5c0.8,0,1.8,0,2.6,0
		c0.3,0,0.8,0,1.1,0c0.2,0,0.5,0,1,0h0.3c0-2.6-0.5-4.2-1.5-5.2c-0.8-0.8-2.1-1.3-3.9-1.3c-1.3,0-2.6,0.2-3.7,0.8
		c-0.5,0.2-0.8,0.3-1.1,0.6c-0.2,0.2-0.3,0.2-0.5,0.3c-0.2,0.2-0.2,0.2-0.3,0.2c-0.2,0.2-0.3,0.2-0.5,0l-1.3-1.1
		c-0.2-0.2-0.2-0.3,0-0.5s0.2-0.2,0.3-0.3c0.2-0.2,0.3-0.3,0.5-0.5c0.5-0.3,1-0.6,1.5-0.8c1.5-0.6,3.1-1,4.8-1
		c2.4,0,4.4,0.6,5.6,1.9c1,1,1.6,2.4,1.9,4.2c0.2,0.6,0.2,1.5,0.2,2.4v1.3v1.1c0,0.5,0,1.1,0,1.5c0,1.3,0.2,2.9,0.2,4.5
		c0.2,1.3,0.2,2.6,0.5,4c0,0.3-0.2,0.5-0.3,0.5L373.2,686.1L373.2,686.1z M371.4,680.5c0.3-0.6,0.6-1.3,0.8-2.1l0.2-0.5v-0.8v-0.8
		v-0.8c-0.2,0-0.3,0-0.5,0c-0.6,0-1.3-0.2-1.9-0.2c-0.8,0-1.8,0-2.4,0c-1.1,0-1.9,0.2-2.7,0.5c-1.1,0.3-1.9,0.6-2.6,1.1
		c-0.8,0.6-1.1,1.5-1.1,2.4c0,1.1,0.2,2.1,0.8,2.7c0.5,0.6,1.3,1.1,2.4,1.5c1.1,0.2,2.1,0.2,3.1,0c1-0.2,1.8-0.6,2.6-1.1
		C370.3,682.1,370.9,681.3,371.4,680.5z"/>
	<path fill="#444444" d="M382.5,682.7c-2.1-2.3-3.1-5.2-2.7-8.2c0.2-2.4,1.3-4.7,2.9-6.5c1.8-1.8,3.9-2.9,6.3-3.2
		c2.6-0.3,4.8,0.2,7.1,1.6c0.2,0.2,0.2,0.3,0.2,0.5l-1,1.5c-0.2,0.2-0.3,0.2-0.5,0.2c-1.5-0.8-2.9-1.3-4.5-1.3c-2.3,0-4,0.8-5.6,2.4
		c-1.6,1.6-2.4,3.5-2.6,5.6c-0.2,2.4,0.6,4.5,2.4,6.1c1.6,1.8,3.7,2.6,6.1,2.6c1.6,0,3.1-0.5,4.5-1.3c0.2-0.2,0.3-0.2,0.5,0.2l1,1.5
		c0.2,0.2,0.2,0.3-0.2,0.5c-1.8,1.1-3.5,1.6-5.8,1.6C387.2,686.1,384.6,685,382.5,682.7z"/>
	<path fill="#444444" d="M413.5,684.7c0.2,0.2,0.2,0.3-0.2,0.5c-1.1,0.8-2.1,1.1-3.2,1.1c-0.8,0-1.5-0.2-2.1-0.5
		c-0.8-0.5-1.6-1.1-2.1-2.1s-0.8-1.9-0.8-3.1v-13.4h-2.9c-0.2,0-0.3-0.2-0.3-0.3v-1.6c0-0.2,0.2-0.3,0.3-0.3h2.9v-6.1
		c0-0.2,0.2-0.3,0.3-0.3h1.6c0.2,0,0.3,0.2,0.3,0.3v6.1h3.4c0.2,0,0.3,0.2,0.3,0.3v1.6c0,0.2-0.2,0.3-0.3,0.3h-3.4v13.4
		c0,1.5,0.5,2.6,1.6,3.1c1,0.5,1.9,0.3,3.1-0.3c0.2-0.2,0.3-0.2,0.5,0.2L413.5,684.7z"/>
	<path fill="#444444" d="M421.2,659.2c-0.3,0.3-0.8,0.5-1.1,0.5c-0.5,0-0.8-0.2-1.1-0.5s-0.5-0.8-0.5-1.1c0-0.5,0.2-0.8,0.5-1.1
		c0.3-0.3,0.6-0.5,1.1-0.5c0.5,0,0.8,0.2,1.1,0.5s0.5,0.8,0.5,1.1C421.7,658.5,421.5,658.9,421.2,659.2z M419.3,686.1
		c-0.2,0-0.3-0.2-0.3-0.3v-20.6c0-0.2,0.2-0.3,0.3-0.3h1.6c0.2,0,0.3,0.2,0.3,0.3v20.6c0,0.2-0.2,0.3-0.3,0.3H419.3z"/>
	<path fill="#444444" d="M437.3,686c0,0.2-0.2,0.2-0.3,0.2h-1.6c-0.2,0-0.3-0.2-0.3-0.2l-7.6-20.6c0-0.2,0-0.2,0-0.3
		c0.2-0.2,0.2-0.2,0.3-0.2h1.8c0.2,0,0.2,0.2,0.3,0.2l6.5,17.1l6.5-17.1c0-0.2,0.2-0.2,0.3-0.2h1.8c0.2,0,0.2,0,0.3,0.2
		c0,0.2,0.2,0.2,0,0.3L437.3,686z"/>
	<path fill="#444444" d="M451.2,683.1c-2.1-2.1-3.2-4.7-3.2-7.6c0-3.1,1-5.5,3.1-7.6s4.5-3.1,7.4-3.1c2.9,0,5.2,1.1,7.3,3.1
		c1.9,2.1,2.9,4.5,2.9,7.4v0.5c0,0.2-0.2,0.3-0.3,0.3l-17.7,1.6c0.5,1.8,1.5,3.2,2.9,4.4s3.2,1.8,5.2,1.8c1.5,0,2.7-0.3,4-1.1
		c1.3-0.6,2.3-1.6,3.1-2.9c0.2-0.2,0.3-0.2,0.5-0.2l1.5,0.8c0.2,0.2,0.2,0.3,0.2,0.5c-1,1.6-2.3,2.7-3.9,3.7s-3.4,1.5-5.2,1.5
		C455.9,686.1,453.3,685.2,451.2,683.1z M452.8,669.5c-1.5,1.6-2.3,3.5-2.3,6l15.8-1.5c-0.2-2.1-1.1-3.7-2.6-5s-3.2-1.9-5.3-1.9
		C456.2,667.1,454.3,667.9,452.8,669.5z"/>
	<path fill="#444444" d="M508.5,685.8c0,0.2-0.2,0.3-0.3,0.3h-1.6c-0.2,0-0.3-0.2-0.3-0.3v-3.7c-1,1.3-2.3,2.3-3.7,2.9
		c-1.5,0.8-3.1,1.1-4.7,1.1c-2.9,0-5.5-1.1-7.6-3.1c-2.1-2.1-3.1-4.7-3.1-7.6s1.1-5.5,3.1-7.6c2.1-2.1,4.7-3.2,7.6-3.2
		c1.8,0,3.2,0.3,4.7,1.1c1.5,0.6,2.6,1.8,3.7,2.9v-17.6c0-0.2,0.2-0.3,0.3-0.3h1.6c0.2,0,0.3,0.2,0.3,0.3V685.8z M497.8,683.9
		c2.3,0,4.4-0.8,6-2.4c1.6-1.6,2.4-3.5,2.4-6c0-2.3-0.8-4.4-2.4-6c-1.6-1.6-3.5-2.4-6-2.4c-2.3,0-4.2,0.8-6,2.4
		c-1.6,1.6-2.4,3.5-2.4,6c0,2.3,0.8,4.2,2.4,6C493.5,683.1,495.4,683.9,497.8,683.9z"/>
	<path fill="#444444" d="M517.5,683.1c-2.1-2.1-3.2-4.7-3.2-7.6c0-3.1,1-5.5,3.1-7.6c2.1-2.1,4.5-3.1,7.4-3.1c2.9,0,5.2,1.1,7.3,3.1
		c1.9,2.1,2.9,4.5,2.9,7.4v0.5c0,0.2-0.2,0.3-0.3,0.3l-17.7,1.6c0.5,1.8,1.5,3.2,2.9,4.4c1.5,1.1,3.2,1.8,5.2,1.8
		c1.5,0,2.7-0.3,4-1.1c1.3-0.6,2.3-1.6,3.1-2.9c0.2-0.2,0.3-0.2,0.5-0.2l1.5,0.8c0.2,0.2,0.2,0.3,0.2,0.5c-1,1.6-2.3,2.7-3.9,3.7
		c-1.6,1-3.4,1.5-5.2,1.5C522.2,686.1,519.6,685.2,517.5,683.1z M518.9,669.5c-1.5,1.6-2.3,3.5-2.3,6l15.8-1.5
		c-0.2-2.1-1.1-3.7-2.6-5s-3.2-1.9-5.3-1.9C522.3,667.1,520.6,667.9,518.9,669.5z"/>
	<path fill="#444444" d="M548.9,686c0,0.2-0.2,0.2-0.3,0.2h-1.5c-0.2,0-0.3-0.2-0.3-0.2l-7.6-20.6c0-0.2,0-0.2,0-0.3
		c0.2-0.2,0.2-0.2,0.3-0.2h1.8c0.2,0,0.2,0.2,0.3,0.2l6.5,17.1l6.5-17.1c0-0.2,0.2-0.2,0.3-0.2h1.8c0.2,0,0.2,0,0.3,0.2
		c0,0.2,0.2,0.2,0,0.3L548.9,686z"/>
	<path fill="#444444" d="M563,683.1c-2.1-2.1-3.2-4.7-3.2-7.6c0-3.1,1-5.5,3.1-7.6c2.1-2.1,4.5-3.1,7.4-3.1c2.9,0,5.2,1.1,7.3,3.1
		c1.9,2.1,2.9,4.5,2.9,7.4v0.5c0,0.2-0.2,0.3-0.3,0.3l-17.7,1.6c0.5,1.8,1.5,3.2,2.9,4.4s3.2,1.8,5.2,1.8c1.5,0,2.7-0.3,4-1.1
		c1.3-0.6,2.3-1.6,3.1-2.9c0.2-0.2,0.3-0.2,0.5-0.2l1.5,0.8c0.2,0.2,0.2,0.3,0.2,0.5c-1,1.6-2.3,2.7-3.9,3.7c-1.6,1-3.4,1.5-5.2,1.5
		C567.6,686.1,565.1,685.2,563,683.1z M564.4,669.5c-1.5,1.6-2.3,3.5-2.3,6L578,674c-0.2-2.1-1.1-3.7-2.6-5
		c-1.5-1.3-3.2-1.9-5.3-1.9C567.8,667.1,566,667.9,564.4,669.5z"/>
	<path fill="#444444" d="M588.1,686.1c-0.2,0-0.3-0.2-0.3-0.3v-34.7c0-0.2,0.2-0.3,0.3-0.3h1.6c0.2,0,0.3,0.2,0.3,0.3v34.7
		c0,0.2-0.2,0.3-0.3,0.3H588.1z"/>
	<path fill="#444444" d="M598.8,683.1c-2.1-2.1-3.1-4.7-3.1-7.6s1.1-5.5,3.1-7.6c2.1-2.1,4.5-3.1,7.6-3.1c2.9,0,5.5,1.1,7.6,3.1
		c2.1,2.1,3.2,4.5,3.2,7.6c0,2.9-1.1,5.5-3.2,7.6c-2.1,2.1-4.5,3.1-7.6,3.1C603.4,686.1,600.9,685.2,598.8,683.1z M600.4,669.7
		c-1.6,1.6-2.4,3.5-2.4,6c0,2.3,0.8,4.2,2.4,6c1.6,1.6,3.5,2.4,6,2.4c2.3,0,4.2-0.8,6-2.4c1.6-1.6,2.4-3.5,2.4-6
		c0-2.3-0.8-4.2-2.4-6c-1.6-1.6-3.5-2.4-6-2.4C604.1,667.1,602.2,667.9,600.4,669.7z"/>
	<path fill="#444444" d="M634.9,664.7c2.9,0,5.5,1.1,7.7,3.2c2.1,2.1,3.2,4.5,3.2,7.6s-1.1,5.5-3.2,7.6c-2.1,2.1-4.7,3.2-7.7,3.2
		c-1.8,0-3.2-0.3-4.8-1.1c-1.5-0.6-2.6-1.8-3.7-2.9v17.6c0,0.2-0.2,0.3-0.3,0.3h-1.8c-0.2,0-0.3-0.2-0.3-0.3v-34.5
		c0-0.2,0.2-0.3,0.3-0.3h1.8c0.2,0,0.3,0.2,0.3,0.3v3.7c1-1.3,2.3-2.3,3.7-2.9C631.7,665.2,633.3,664.7,634.9,664.7z M634.9,683.9
		c2.3,0,4.4-0.8,6-2.4c1.6-1.6,2.4-3.5,2.4-6c0-2.3-0.8-4.2-2.4-6c-1.6-1.6-3.7-2.4-6-2.4s-4.4,0.8-6,2.4c-1.6,1.6-2.4,3.5-2.4,6
		c0,2.3,0.8,4.4,2.4,6C630.5,683.1,632.6,683.9,634.9,683.9z"/>
	<path fill="#444444" d="M654.2,683.1c-2.1-2.1-3.2-4.7-3.2-7.6c0-3.1,1-5.5,3.1-7.6c2.1-2.1,4.5-3.1,7.4-3.1c2.9,0,5.2,1.1,7.3,3.1
		c1.9,2.1,2.9,4.5,2.9,7.4v0.5c0,0.2-0.2,0.3-0.3,0.3l-17.7,1.6c0.5,1.8,1.5,3.2,2.9,4.4s3.2,1.8,5.2,1.8c1.5,0,2.7-0.3,4-1.1
		c1.3-0.6,2.3-1.6,3.1-2.9c0.2-0.2,0.3-0.2,0.5-0.2l1.5,0.8c0.2,0.2,0.2,0.3,0.2,0.5c-1,1.6-2.3,2.7-3.9,3.7c-1.6,1-3.4,1.5-5.2,1.5
		C658.8,686.1,656.3,685.2,654.2,683.1z M655.7,669.5c-1.5,1.6-2.3,3.5-2.3,6l15.8-1.5c-0.2-2.1-1.1-3.7-2.6-5s-3.2-1.9-5.3-1.9
		C659.1,667.1,657.1,667.9,655.7,669.5z"/>
	<path fill="#444444" d="M688.6,665c0.2,0,0.3,0.2,0.3,0.5l-0.3,1.6c0,0.2-0.2,0.3-0.5,0.3c-0.3,0-0.6-0.2-1-0.2
		c-1.8,0-3.1,0.6-4.4,1.8c-1.1,1.1-1.8,2.6-1.8,4.4V686c0,0.2-0.2,0.3-0.3,0.3h-1.6c-0.2,0-0.3-0.2-0.3-0.3v-20.8
		c0-0.2,0.2-0.3,0.3-0.3h1.6c0.2,0,0.3,0.2,0.3,0.3v2.4c1.8-1.8,3.7-2.6,6.1-2.6C687.8,664.8,688.1,665,688.6,665z"/>
</g>
<g>
	<path fill="#444444" d="M293.2,571.6c0.3,0,0.5,0.2,0.5,0.5v6.8c0,0.3-0.2,0.5-0.5,0.5h-16.3v53.7c0,0.3-0.2,0.5-0.5,0.5h-6.8
		c-0.3,0-0.5-0.2-0.5-0.5v-53.7h-16.3c-0.3,0-0.5-0.2-0.5-0.5v-6.8c0-0.3,0.2-0.5,0.5-0.5C252.7,571.6,293.2,571.6,293.2,571.6z"/>
	<path fill="#444444" d="M309.9,587.6c-1.1,0-2.1-0.5-2.9-1.3c-0.8-0.8-1.3-1.8-1.3-2.9c0-1.1,0.5-2.1,1.3-2.9
		c0.8-0.8,1.8-1.3,2.9-1.3c1.1,0,2.1,0.5,2.9,1.3c0.8,0.8,1.3,1.8,1.3,2.9s-0.5,2.1-1.3,2.9C312.2,587.1,311.1,587.6,309.9,587.6z
		 M313,594.7c0.3,0,0.5,0.2,0.5,0.5v37.9c0,0.3-0.2,0.5-0.5,0.5h-6.1c-0.3,0-0.5-0.2-0.5-0.5v-37.9c0-0.3,0.2-0.5,0.5-0.5H313z"/>
	<path fill="#444444" d="M385.3,621c0,3.5,0,6.6,0.2,9v3.1c0,0.3-0.2,0.5-0.5,0.5h-6.1c-0.3,0-0.5-0.2-0.5-0.5V630v-9
		c0-1,0-2.4,0-4.4v-1.1v-1.3c0-1,0-1.8,0-2.4v-1.3v-1c0-0.6-0.2-1.3-0.5-1.8c-0.5-1.3-1.1-2.3-1.9-3.2s-1.9-1.6-3.1-2.1
		c-0.6-0.2-1.1-0.5-1.8-0.5h-0.2c-0.2,0-0.2,0-0.2,0h-0.2h-0.2c-0.2,0-0.2,0-0.3,0h-0.3l0,0h-0.2h-0.2h-0.2c-2.3,0.2-4.4,1-6,2.7
		c-0.6,0.6-1.1,1.5-1.5,2.1c-0.3,0.6-0.5,1.3-0.6,1.9c0,0.3-0.2,0.6-0.2,0.8v0.2v0.2v0.2c0,0.3,0,0.5,0,0.6l-0.2,1.5
		c0,1.3,0,2.9,0,4.7v1.1v1.1c0,0.8,0,1.5,0,2.1c0,3.5,0,6.6,0,9v3.1c0,0.3-0.2,0.5-0.5,0.5h-6.1c-0.3,0-0.5-0.2-0.5-0.5v-3.1
		c0-2.4,0-5.5,0-9c0-1,0-2.4,0-4.4v-1.1v-1.3c0-1,0-1.8,0-2.4v-1.3v-1c0-0.6-0.2-1.3-0.5-1.8c-0.5-1.3-1.1-2.3-1.9-3.2
		s-1.9-1.6-3.1-2.1c-0.6-0.2-1.1-0.5-1.8-0.5h-0.2c-0.2,0-0.2,0-0.2,0h-0.2l0,0c-0.2,0-0.2,0-0.3,0h-0.3l0,0h-0.2h-0.5
		c-2.3,0.2-4.4,1-6,2.7c-0.6,0.6-1.1,1.5-1.5,2.1c-0.3,0.6-0.5,1.3-0.6,1.9c0,0.3-0.2,0.6-0.2,0.8v0.2v0.2v0.2c0,0.3,0,0.5,0,0.6
		v0.5v21.9c0,0.3-0.2,0.5-0.5,0.5h-6.3c-0.3,0-0.5-0.2-0.5-0.5v-38.1c0-0.3,0.2-0.5,0.5-0.5h6.3c0.3,0,0.5,0.2,0.5,0.5v2.9
		c0.6-0.5,1.3-1,1.9-1.3c1.8-1,3.9-1.5,6-1.8h0.8h0.2h0.2h0.2h0.3c0,0,0.2,0,0.3,0h0.3h0.2c0.2,0,0.3,0,0.5,0h0.5
		c1.1,0.2,2.3,0.5,3.2,0.8c2.3,0.8,4.2,2.1,5.8,3.7c0.5,0.5,0.8,1,1.3,1.5c0.3-0.3,0.5-0.6,0.8-1c1.3-1.5,2.7-2.6,4.4-3.4
		c1.8-1,3.9-1.5,6-1.8h0.8h0.2h0.2h0.2h0.3c0,0,0.2,0,0.3,0h0.2h0.3c0.2,0,0.3,0,0.5,0h0.5c1.1,0.2,2.3,0.5,3.2,0.8
		c2.3,0.8,4.2,2.1,5.8,3.7c1.6,1.8,2.7,3.5,3.5,5.8c0.3,1.1,0.6,2.1,0.8,3.2c0,0.5,0.2,1.1,0.2,1.8v1.3c0,0.8,0,1.6,0,2.4v1.3v1.1
		C385.3,618.7,385.3,620,385.3,621z"/>
	<path fill="#444444" d="M416.4,594.5c5.5,0,10,1.9,13.9,5.6c3.9,3.9,5.8,8.4,5.8,13.9c0,5.5-1.9,10-5.8,13.9
		c-3.9,3.9-8.4,5.6-13.9,5.6c-5.3,0-10-1.9-13.9-5.6c-3.9-3.9-5.8-8.4-5.8-13.9c0-5.3,1.9-10,5.8-13.9
		C406.4,596.5,411.1,594.5,416.4,594.5z M416.4,626.3c3.4,0,6.3-1.1,8.5-3.5c2.4-2.4,3.5-5.3,3.5-8.5s-1.1-6.3-3.5-8.5
		c-2.4-2.4-5.3-3.5-8.5-3.5c-3.2,0-6.3,1.1-8.5,3.5c-2.4,2.4-3.5,5.2-3.5,8.5s1.1,6.3,3.5,8.5C410.3,625.2,413,626.3,416.4,626.3z"
		/>
	<path fill="#444444" d="M461.7,626.1c1,0.5,2.1,0.3,3.2-0.5c0.3-0.2,0.5-0.2,0.8,0.2l3.7,5c0.3,0.3,0.2,0.6-0.2,0.8
		c-2.1,1.5-4.2,2.1-6.5,2.1c-1.5,0-2.9-0.3-4.4-1.1c-1.8-0.8-3.2-2.3-4.2-4s-1.5-3.9-1.5-6.1v-20.6h-6.1c-0.3,0-0.5-0.2-0.5-0.5
		v-6.1c0-0.3,0.2-0.5,0.5-0.5h6v-8.2c0-0.3,0.2-0.5,0.5-0.5h6.1c0.3,0,0.5,0.2,0.5,0.5v8.2h6c0.3,0,0.5,0.2,0.5,0.5v6.1
		c0,0.3-0.2,0.5-0.5,0.5h-6v20.6C459.9,624.4,460.6,625.7,461.7,626.1z"/>
	<path fill="#444444" d="M515.7,621c0,3.7,0,6.6,0,9.2v3.1c0,0.3-0.2,0.5-0.5,0.5h-6.1c-0.3,0-0.5-0.2-0.5-0.5v-3.1
		c0-2.4,0-5.5,0.2-9.2c0-1.1,0-2.6,0-4.5v-1.1V614c0-1,0-1.8,0-2.6v-0.6v-0.5c0-0.3,0-0.6-0.2-1c-0.2-0.6-0.3-1.3-0.5-1.9
		c-0.5-1.3-1.3-2.3-2.1-3.2c-1-1-2.1-1.6-3.2-2.1c-0.6-0.2-1.3-0.3-1.9-0.5h-0.2h-0.2c0,0-0.2,0-0.3,0h-0.3h-0.2h-0.2h-0.3h-0.2
		h-0.3c-1.3,0.2-2.3,0.5-3.4,1c-1,0.5-1.8,1.1-2.6,1.9c-0.6,0.6-1.1,1.5-1.5,2.3c-0.3,0.6-0.5,1.3-0.6,2.1c-0.2,0.3-0.2,0.6-0.2,0.8
		v0.2v0.2v0.2c0,0.3,0,0.5,0,0.6l-0.2,2.3v19.8c0,0.5-0.2,0.6-0.5,0.6h-6.3c-0.3,0-0.5-0.2-0.5-0.6v-61.1c0-0.3,0.2-0.5,0.5-0.5h6.3
		c0.3,0,0.5,0.2,0.5,0.5v26.3c0.6-0.5,1.5-1,2.1-1.3c1.8-1,3.9-1.6,6-1.9h0.5h0.5h0.5h0.2h0.3h0.3h0.2h0.2h0.5c0.2,0,0.3,0,0.5,0
		c1.1,0.2,2.3,0.3,3.4,0.6c2.3,0.8,4.2,1.9,6,3.5c1.8,1.6,2.9,3.5,3.9,5.8c0.5,1.1,0.8,2.1,1,3.2c0.2,0.5,0.2,1.1,0.2,1.6v0.8v0.6
		c0,0.8,0,1.6,0,2.6v1.3v1.1C515.7,618.4,515.7,619.8,515.7,621z"/>
	<path fill="#444444" d="M545.4,596.5c5,0,9.2,1.9,12.6,5.5c3.4,3.5,5.2,7.9,5.2,12.9v2.3c0,0.3-0.2,0.5-0.5,0.5l-27.4,2.4
		c1,2.1,2.3,3.5,4.2,4.8c1.9,1.3,4,1.9,6.3,1.9c1.9,0,3.9-0.5,5.5-1.5c1.8-1,3.2-2.3,4.2-3.9c0.2-0.3,0.5-0.3,0.6-0.2l5.2,2.9
		c0.3,0.2,0.5,0.5,0.2,0.8c-1.8,2.7-4,4.8-6.8,6.5c-2.9,1.6-5.8,2.4-9,2.4c-5.2,0-9.5-1.8-13.2-5.5c-3.7-3.7-5.5-8.1-5.5-13.2
		c0-5.2,1.8-9.7,5.3-13.2C536,598.2,540.4,596.5,545.4,596.5z M555.9,611.3c-0.6-2.4-1.8-4.4-3.7-5.6c-1.9-1.5-4.2-2.1-6.9-2.1
		s-5.2,1-7.3,2.7c-2.1,1.8-3.2,4.2-3.5,6.9L555.9,611.3z M554.4,576.6c0.3,0,0.5,0.2,0.6,0.5l1,6.1c0,0.3-0.2,0.6-0.5,0.6l-19.5,2.9
		c-0.3,0-0.5-0.2-0.6-0.5l-1-6.1c0-0.3,0.2-0.5,0.5-0.6L554.4,576.6z"/>
	<path fill="#444444" d="M592.5,594.7c5.2,0,9.5,1.9,13.2,5.8c3.7,3.7,5.5,8.2,5.5,13.5v2.4c0,0.3-0.2,0.5-0.5,0.5l-28.7,2.4
		c1,2.1,2.4,3.7,4.5,5c2.1,1.3,4.2,1.9,6.6,1.9c2.1,0,4-0.5,5.8-1.5c1.8-1,3.4-2.4,4.5-4.2c0.2-0.3,0.5-0.5,0.8-0.2l5.3,3.1
		c0.3,0.2,0.5,0.5,0.2,0.8c-1.8,2.9-4.2,5.2-7.1,6.8c-2.9,1.6-6.1,2.4-9.5,2.4c-5.3,0-10-1.9-13.7-5.8c-3.9-3.9-5.8-8.4-5.8-13.7
		c0-5.5,1.8-10.2,5.5-13.9C582.8,596.6,587.2,594.7,592.5,594.7z M603.4,610.2c-0.6-2.4-1.9-4.5-3.9-6c-2.1-1.5-4.4-2.3-7.1-2.3
		c-2.9,0-5.5,1-7.6,2.9c-2.1,1.9-3.4,4.4-3.9,7.3L603.4,610.2z"/>
	<path fill="#444444" d="M689.2,572.1c0.2-0.3,0.5-0.5,0.8-0.5h6.1c0.3,0,0.5,0.2,0.6,0.3s0.2,0.5,0.2,0.8l-20.8,60.5
		c-0.2,0.3-0.3,0.5-0.8,0.5h-5.5c-0.5,0-0.6-0.2-0.8-0.5l-20.8-60.5c-0.2-0.3,0-0.5,0.2-0.8c0.2-0.2,0.5-0.3,0.6-0.3h6.1
		c0.5,0,0.6,0.2,0.8,0.5l16.6,48.2L689.2,572.1z"/>
	<path fill="#444444" d="M733.1,614.7c0,1,0,1.8,0,2.3c0,2.6,0.2,5.5,0.5,9c0.2,1.3,0.3,2.6,0.5,4c0.2,1,0.2,2.1,0.5,2.9
		c0,0.5-0.2,0.6-0.5,0.6h-6.3c-0.3,0-0.5-0.2-0.5-0.5c-0.2-1.1-0.3-2.1-0.5-3.2c-2.9,2.4-6.5,3.7-10.5,3.7c-4.2,0-7.4-1.1-9.8-3.2
		c-2.3-2.1-3.5-5.2-3.5-9c0-3.4,1.3-6.1,3.7-8.4c3.7-3.4,10.2-4.7,19.2-4.2c-0.2-2.6-0.8-4.4-1.8-5.3c-1-1.1-2.7-1.6-5.3-1.6
		c-1.9,0-3.7,0.3-5.3,1c-0.6,0.2-1.1,0.5-1.6,0.8c-0.3,0.2-0.6,0.5-1,0.6c-0.3,0.2-0.5,0.2-0.8,0l-4.5-4.2c-0.3-0.3-0.3-0.5,0-0.8
		c0.2-0.2,0.5-0.5,0.6-0.5c0.3-0.3,0.6-0.5,1-0.8c0.8-0.6,1.8-1.1,2.7-1.6c2.7-1.3,5.6-1.9,8.9-1.9c4.5,0,8.1,1.3,10.6,3.7
		c1.8,1.8,2.9,4.2,3.4,6.9c0.5,1.9,0.6,4.5,0.5,7.9c0,0.5,0,0.6,0,0.6S733.1,614.2,733.1,614.7z M716,626.5c0.8,0,1.6-0.2,2.4-0.3
		c1.1-0.3,2.1-0.8,2.9-1.3c2.3-1.8,3.7-4.5,4.2-8.4c-1.3-0.2-2.6-0.2-3.7-0.2c-5.2,0-8.7,0.8-10.6,2.4c-0.8,0.6-1.1,1.6-1.1,2.9
		c0,1.6,0.3,2.7,1,3.4C712,625.8,713.6,626.5,716,626.5z"/>
	<path fill="#444444" d="M756.2,597.3c2.6-1.6,5.3-2.4,8.4-2.4c1,0,1.8,0.2,2.6,0.2c0.3,0,0.5,0.3,0.5,0.6l-1.3,6.1
		c-0.2,0.3-0.3,0.5-0.6,0.5c-0.3,0-0.8-0.2-1.1-0.2c-2.1,0-4,0.8-5.6,2.1c-1.6,1.3-2.6,3.2-2.7,5.3v23.5c0,0.3-0.2,0.5-0.5,0.5h-6.3
		c-0.3,0-0.5-0.2-0.5-0.5V595c0-0.3,0.2-0.5,0.5-0.5h6.3c0.3,0,0.5,0.2,0.5,0.5V597.3L756.2,597.3z"/>
	<path fill="#444444" d="M806.6,614.7c0,1,0,1.8,0,2.3c0,2.6,0.2,5.5,0.5,9c0.2,1.3,0.3,2.6,0.5,4c0.2,1,0.2,2.1,0.5,2.9
		c0,0.5-0.2,0.6-0.5,0.6h-6.3c-0.3,0-0.5-0.2-0.5-0.5c-0.2-1.1-0.3-2.1-0.5-3.2c-2.9,2.4-6.5,3.7-10.5,3.7c-4.2,0-7.4-1.1-9.8-3.2
		c-2.3-2.1-3.5-5.2-3.5-9c0-3.4,1.3-6.1,3.7-8.4c3.7-3.4,10.2-4.7,19.2-4.2c-0.2-2.6-0.8-4.4-1.8-5.3c-1-1.1-2.7-1.6-5.3-1.6
		c-1.9,0-3.7,0.3-5.3,1c-0.6,0.2-1.1,0.5-1.6,0.8c-0.3,0.2-0.6,0.5-1,0.6c-0.3,0.2-0.5,0.2-0.8,0l-4.7-3.9c-0.3-0.3-0.3-0.5,0-0.8
		c0.2-0.2,0.5-0.5,0.6-0.5c0.3-0.3,0.6-0.5,1-0.8c0.8-0.6,1.8-1.1,2.7-1.6c2.7-1.3,5.6-1.9,8.9-1.9c4.5,0,8.1,1.3,10.6,3.7
		c1.8,1.8,2.9,4.2,3.4,6.9c0.5,1.9,0.6,4.5,0.5,7.9c0,0.5,0,0.6,0,0.6S806.8,614.2,806.6,614.7z M789.7,626.5c0.8,0,1.6-0.2,2.4-0.3
		c1.1-0.3,2.1-0.8,2.9-1.3c2.3-1.8,3.7-4.5,4.2-8.4c-1.3-0.2-2.6-0.2-3.7-0.2c-5.2,0-8.7,0.8-10.6,2.4c-0.8,0.6-1.1,1.6-1.1,2.9
		c0,1.6,0.3,2.7,1,3.4C785.5,625.8,787.3,626.5,789.7,626.5z"/>
	<path fill="#444444" d="M827.3,587.6c-1.1,0-2.1-0.5-2.9-1.3c-0.8-0.8-1.3-1.8-1.3-2.9c0-1.1,0.5-2.1,1.3-2.9
		c0.8-0.8,1.8-1.3,2.9-1.3c1.1,0,2.1,0.5,2.9,1.3c0.8,0.8,1.3,1.8,1.3,2.9s-0.5,2.1-1.3,2.9C829.4,587.1,828.4,587.6,827.3,587.6z
		 M830.3,594.7c0.3,0,0.5,0.2,0.5,0.5v37.9c0,0.3-0.2,0.5-0.5,0.5h-6.3c-0.3,0-0.5-0.2-0.5-0.5v-37.9c0-0.3,0.2-0.5,0.5-0.5H830.3z"
		/>
	<path fill="#444444" d="M847.3,633.7c-0.3,0-0.5-0.2-0.5-0.5v-61.1c0-0.3,0.2-0.5,0.5-0.5h6.3c0.3,0,0.5,0.2,0.5,0.5v61.1
		c0,0.3-0.2,0.5-0.5,0.5H847.3z"/>
	<path fill="#444444" d="M871.1,633.7c-0.3,0-0.5-0.2-0.5-0.5v-61.1c0-0.3,0.2-0.5,0.5-0.5h6.3c0.3,0,0.5,0.2,0.5,0.5v61.1
		c0,0.3-0.2,0.5-0.5,0.5H871.1z"/>
	<path fill="#444444" d="M921.6,614.7c0,1,0,1.8,0,2.3c0,2.6,0.2,5.5,0.5,9c0.2,1.3,0.3,2.6,0.5,4c0.2,1,0.2,2.1,0.5,2.9
		c0,0.5-0.2,0.6-0.5,0.6h-6.3c-0.3,0-0.5-0.2-0.5-0.5c-0.2-1.1-0.3-2.1-0.5-3.2c-2.9,2.4-6.5,3.7-10.5,3.7c-4.2,0-7.4-1.1-9.8-3.2
		c-2.3-2.1-3.5-5.2-3.5-9c0-3.4,1.3-6.1,3.7-8.4c3.7-3.4,10.2-4.7,19.2-4.2c-0.2-2.6-0.8-4.4-1.8-5.3c-1-1.1-2.7-1.6-5.3-1.6
		c-1.9,0-3.7,0.3-5.3,1c-0.6,0.2-1.1,0.5-1.6,0.8c-0.3,0.2-0.6,0.5-1,0.6c-0.3,0.2-0.5,0.2-0.8,0L894,600c-0.3-0.3-0.3-0.5,0-0.8
		c0.2-0.2,0.5-0.5,0.6-0.5c0.3-0.3,0.6-0.5,1-0.8c0.8-0.6,1.8-1.1,2.7-1.6c2.7-1.3,5.6-1.9,8.9-1.9c4.5,0,8.1,1.3,10.6,3.7
		c1.8,1.8,2.9,4.2,3.4,6.9c0.5,1.9,0.6,4.5,0.5,7.9c0,0.5,0,0.6,0,0.6S921.6,614.2,921.6,614.7z M904.5,626.5c0.8,0,1.6-0.2,2.4-0.3
		c1.1-0.3,2.1-0.8,2.9-1.3c2.3-1.8,3.7-4.5,4.2-8.4c-1.3-0.2-2.6-0.2-3.7-0.2c-5.2,0-8.7,0.8-10.6,2.4c-0.8,0.6-1.1,1.6-1.1,2.9
		c0,1.6,0.3,2.7,1,3.4C900.5,625.8,902.1,626.5,904.5,626.5z"/>
	<path fill="#444444" d="M960,621.9v0.3v0.5v0.5v0.2v0.2c0,0.2,0,0.2,0,0.3l-0.2,0.6l-0.2,0.6c-0.3,1.6-1,3.1-1.9,4.4
		s-2.1,2.1-3.5,2.9c-1.1,0.5-2.3,1-3.7,1.3c-1.3,0.2-2.3,0.3-3.2,0.5h-0.5h-0.2h-0.2h-0.2h-0.6c-0.2,0-0.5,0-0.6,0
		c-0.2,0-0.5,0-0.8-0.2c-0.8-0.2-1.8-0.3-2.7-0.5c-1.5-0.3-2.9-1-4.2-1.8c-0.6-0.3-1.3-0.8-1.9-1.3c-0.5-0.3-0.8-0.6-1.1-1
		c-0.3-0.3-0.3-0.5,0-0.8l4.5-4.4c0.2-0.2,0.5-0.2,0.8,0c0.2,0.2,0.5,0.3,0.6,0.5c0.3,0.2,0.5,0.3,0.6,0.5c0.8,0.5,1.6,0.8,2.6,1.1
		l0.5,0.2l0.5,0.2h0.2h0.2c0.2,0,0.3,0,0.5,0h0.2h0.2c0.2,0,0.3,0,0.5,0h0.6h0.5c0.5,0,1.3,0,2.1-0.2c0.8-0.2,1.3-0.3,1.8-0.6
		c1-0.5,1.6-1.3,1.8-2.3v-0.2v-0.2v-0.2v-0.3v-0.2v-0.5l0,0v-0.2v-0.2v-0.2v-0.2c-0.2-0.5-0.3-1-0.6-1.5c-0.8-1-2.3-1.8-4.4-2.9
		l-1.6-0.8l-0.8-0.3l-0.2-0.2H945l0,0l-0.5-0.2c-1.5-0.6-2.6-1.3-3.4-1.8c-1.5-0.8-2.6-1.8-3.5-2.7c-0.2-0.2-0.2-0.3-0.5-0.5
		l-0.3-0.5c-0.3-0.5-0.5-0.8-0.6-1.1l-0.3-0.6c-0.2-0.2-0.2-0.5-0.2-0.6l-0.2-0.6l-0.2-0.3v-0.3c0-0.3-0.2-0.5-0.2-0.8v-0.5v-0.2
		l0,0v0.2v-0.2V605l0,0l0,0v-0.5c0-0.3,0-0.6,0.2-1.1c0-0.3,0.2-0.6,0.3-1.1c0.5-1.6,1.3-2.9,2.3-4c1-1,2.1-1.8,3.5-2.3
		c1-0.3,2.1-0.6,3.4-0.8c0.8,0,1.3-0.2,1.6-0.2h0.8h0.8c0.8,0,1.8,0.2,2.7,0.3c1.5,0.3,2.9,0.8,4.2,1.6c0.5,0.3,1,0.5,1.5,0.8
		c0.3,0.2,0.8,0.5,1.1,0.8c0.2,0.2,0.2,0.2,0.5,0.5c0.3,0.3,0.3,0.5,0,0.8l-4,3.9c-0.2,0.2-0.5,0.2-0.8,0c-0.2-0.2-0.5-0.3-0.6-0.5
		c-0.3-0.2-0.5-0.3-0.6-0.5c-0.8-0.5-1.6-0.6-2.6-1c-0.6-0.2-1.3-0.2-1.6-0.2h-0.5h-0.5c-0.2,0-0.5,0-0.5,0h-0.2H946
		c-0.8,0.2-1.3,0.3-1.8,0.5c-0.5,0.2-0.8,0.5-1.1,0.8c-0.3,0.3-0.5,0.6-0.6,1.1v0.2v0.2v0.2v0.2v0.2v0.2v0.5l0,0l0,0l0,0l0,0v0.2
		v0.2l0.2,0.2l0.2,0.3l0.2,0.2l0.2,0.2c0.5,0.5,1,0.8,1.8,1.3c0.6,0.3,1.6,0.8,2.7,1.3l0.3,0.2l0.5,0.2l0.8,0.5l1.5,0.6
		c1.5,0.6,2.6,1.3,3.4,1.8c1.5,0.8,2.6,1.8,3.4,2.9c1.1,1.3,1.9,2.9,2.3,4.5l0.2,0.6c0,0.3,0.2,0.5,0.2,0.6L960,621.9z"/>
</g>
<polygon fill="#444444" points="150.1,513.6 0,600.5 0,658.2 50,629.2 50.3,745 100.3,716 100.1,600.3 150.1,571.5 "/>
<polygon fill="#444444" points="50,571.5 150.1,629.2 150.1,571.5 200.1,542.4 200.3,715.8 0,600.5 "/>
</svg>
