<?xml version="1.0" encoding="utf-8"?>
<!-- Generator: Adobe Illustrator 22.0.1, SVG Export Plug-In . SVG Version: 6.00 Build 0)  -->
<svg version="1.1" id="Calque_1" xmlns="http://www.w3.org/2000/svg" xmlns:xlink="http://www.w3.org/1999/xlink" x="0px" y="0px"
	 viewBox="0 0 960 231.4" style="enable-background:new 0 0 960 231.4;" xml:space="preserve">
<style type="text/css">
	.st0{fill:#888888;}
</style>
<g>
	<path class="st0" d="M269.6,172.5c-0.2,0-0.3-0.2-0.3-0.3v-34.7c0-0.2,0.2-0.3,0.3-0.3h1.6c0.2,0,0.3,0.2,0.3,0.3v34.7
		c0,0.2-0.2,0.3-0.3,0.3H269.6z"/>
	<path class="st0" d="M297.2,172.2c0,0.2-0.2,0.3-0.3,0.3h-1.6c-0.2,0-0.3-0.2-0.3-0.3v-0.8c0-1.5,0-3.2,0-5.5v-0.6v-0.6
		c0-0.5,0-1,0-1.5c0-1.1,0-2.1,0-2.9v-0.8c0-0.2,0-0.5,0-0.6c0-0.5-0.2-0.8-0.3-1.3c-0.3-0.8-0.8-1.6-1.5-2.3s-1.5-1.1-2.3-1.5
		c-0.5-0.2-0.8-0.3-1.3-0.3h-0.2h-0.2H289h0h-0.2h-0.2l0,0h-0.2h-0.2c-0.8,0-1.6,0.3-2.4,0.6c-0.6,0.3-1.3,0.8-1.8,1.5
		c-0.5,0.5-0.8,1-1.1,1.6c-0.2,0.5-0.3,1-0.5,1.5c0,0.2,0,0.3-0.2,0.5v0.2v0.2c0,0.2,0,0.3,0,0.3v0.5v11.9c0,0.2-0.2,0.3-0.3,0.3
		h-1.6c-0.2,0-0.3-0.2-0.3-0.3v-20.9c0-0.2,0.2-0.3,0.3-0.3h1.6c0.2,0,0.3,0.2,0.3,0.3v2.7l0.2-0.2c0.6-0.8,1.5-1.3,2.4-1.8
		c1-0.5,2.1-0.8,3.2-0.8h0.2h0.2h0.2h0.2h0.2h0.2h0.2h0.2c0.6,0.2,1.1,0.2,1.8,0.5c1.1,0.5,2.3,1.1,3.1,2.1c0.8,1,1.5,1.9,1.9,3.2
		c0.2,0.6,0.3,1.1,0.5,1.8c0,0.3,0,0.6,0.2,0.8v0.8c0,0.5,0,1,0,1.5c0,0.3,0,0.8,0,1.5v0.6v0.6c0,0.5,0,1,0,1.3c0,2.1,0,4,0,5.5
		L297.2,172.2L297.2,172.2z"/>
	<path class="st0" d="M315.3,171.1c0.2,0.2,0.2,0.3-0.2,0.5c-1.1,0.8-2.1,1.1-3.2,1.1c-0.8,0-1.5-0.2-2.1-0.5
		c-0.8-0.5-1.6-1.1-2.1-2.1s-0.8-1.9-0.8-3.1v-13.4H304c-0.2,0-0.3-0.2-0.3-0.3v-1.6c0-0.2,0.2-0.3,0.3-0.3h2.9v-6.1
		c0-0.2,0.2-0.3,0.3-0.3h1.6c0.2,0,0.3,0.2,0.3,0.3v6.1h3.4c0.2,0,0.3,0.2,0.3,0.3v1.6c0,0.2-0.2,0.3-0.3,0.3h-3.4V167
		c0,1.5,0.5,2.6,1.6,3.1c1,0.5,1.9,0.3,3.1-0.3c0.2-0.2,0.3-0.2,0.5,0.2L315.3,171.1z"/>
	<path class="st0" d="M321.2,169.5c-2.1-2.1-3.2-4.7-3.2-7.6c0-3.1,1-5.5,3.1-7.6s4.5-3.1,7.4-3.1s5.2,1.1,7.3,3.1
		c1.9,2.1,2.9,4.5,2.9,7.4v0.5c0,0.2-0.2,0.3-0.3,0.3l-17.7,1.6c0.5,1.8,1.5,3.2,2.9,4.4c1.5,1.1,3.2,1.8,5.2,1.8
		c1.5,0,2.7-0.3,4-1.1c1.3-0.6,2.3-1.6,3.1-2.9c0.2-0.2,0.3-0.2,0.5-0.2l1.5,0.8c0.2,0.2,0.2,0.3,0.2,0.5c-1,1.6-2.3,2.7-3.9,3.7
		s-3.4,1.5-5.2,1.5C325.9,172.5,323.3,171.6,321.2,169.5z M322.8,155.9c-1.5,1.6-2.3,3.5-2.3,6l15.8-1.5c-0.2-2.1-1.1-3.7-2.6-5
		s-3.2-1.9-5.3-1.9C326.2,153.5,324.3,154.3,322.8,155.9z"/>
	<path class="st0" d="M355.7,151.4c0.2,0,0.3,0.2,0.3,0.5l-0.3,1.6c0,0.2-0.2,0.3-0.5,0.3s-0.6-0.2-1-0.2c-1.8,0-3.1,0.6-4.4,1.8
		c-1.3,1.1-1.8,2.6-1.8,4.4v12.6c0,0.2-0.2,0.3-0.3,0.3h-1.6c-0.2,0-0.3-0.2-0.3-0.3v-20.8c0-0.2,0.2-0.3,0.3-0.3h1.6
		c0.2,0,0.3,0.2,0.3,0.3v2.4c1.8-1.8,3.7-2.6,6.1-2.6C354.8,151.2,355.3,151.4,355.7,151.4z"/>
	<path class="st0" d="M373.2,172.5c-0.2,0-0.3-0.2-0.3-0.3c-0.2-1.1-0.3-2.3-0.3-3.4c-0.5,0.6-1,1.1-1.6,1.6c-1,0.8-2.1,1.5-3.4,1.8
		s-2.6,0.3-4,0.2c-0.8-0.2-1.5-0.3-2.1-0.8c-0.8-0.5-1.3-1-1.8-1.6c-0.8-1.1-1.1-2.6-1.1-4.4c0-0.8,0.3-1.5,0.6-2.3
		c0.3-0.6,0.8-1.3,1.5-1.8c0.8-0.8,2.1-1.3,3.5-1.6c1-0.2,2.1-0.3,3.2-0.5c0.8,0,1.8,0,2.6,0c0.3,0,0.8,0,1.1,0c0.2,0,0.5,0,1,0h0.3
		c0-2.6-0.5-4.2-1.5-5.2c-0.8-0.8-2.1-1.3-3.9-1.3c-1.3,0-2.6,0.2-3.7,0.8c-0.5,0.2-0.8,0.3-1.1,0.6c-0.2,0.2-0.3,0.2-0.5,0.3
		c-0.2,0.2-0.2,0.2-0.3,0.2c-0.2,0.2-0.3,0.2-0.5,0l-1.3-1.1c-0.2-0.2-0.2-0.3,0-0.5s0.2-0.2,0.3-0.3c0.2-0.2,0.3-0.3,0.5-0.5
		c0.5-0.3,1-0.6,1.5-0.8c1.5-0.6,3.1-1,4.8-1c2.4,0,4.4,0.6,5.6,1.9c1,1,1.6,2.4,1.9,4.2c0.2,0.6,0.2,1.5,0.2,2.4v1.3v1.1
		c0,0.5,0,1.1,0,1.5c0,1.3,0.2,2.9,0.2,4.5c0.2,1.3,0.2,2.6,0.5,4c0,0.3-0.2,0.5-0.3,0.5L373.2,172.5L373.2,172.5z M371.4,166.9
		c0.3-0.6,0.6-1.3,0.8-2.1l0.2-0.5v-0.8v-0.8v-0.8c-0.2,0-0.3,0-0.5,0c-0.6,0-1.3-0.2-1.9-0.2c-0.8,0-1.8,0-2.4,0
		c-1.1,0-1.9,0.2-2.7,0.5c-1.1,0.3-1.9,0.6-2.6,1.1c-0.8,0.6-1.1,1.5-1.1,2.4c0,1.1,0.2,2.1,0.8,2.7c0.5,0.6,1.3,1.1,2.4,1.5
		c1.1,0.2,2.1,0.2,3.1,0s1.8-0.6,2.6-1.1C370.3,168.5,370.9,167.7,371.4,166.9z"/>
	<path class="st0" d="M382.5,169.1c-2.1-2.3-3.1-5.2-2.7-8.2c0.2-2.4,1.3-4.7,2.9-6.5c1.8-1.8,3.9-2.9,6.3-3.2
		c2.6-0.3,4.8,0.2,7.1,1.6c0.2,0.2,0.2,0.3,0.2,0.5l-1,1.5c-0.2,0.2-0.3,0.2-0.5,0.2c-1.5-0.8-2.9-1.3-4.5-1.3c-2.3,0-4,0.8-5.6,2.4
		c-1.6,1.6-2.4,3.5-2.6,5.6c-0.2,2.4,0.6,4.5,2.4,6.1c1.6,1.8,3.7,2.6,6.1,2.6c1.6,0,3.1-0.5,4.5-1.3c0.2-0.2,0.3-0.2,0.5,0.2l1,1.5
		c0.2,0.2,0.2,0.3-0.2,0.5c-1.8,1.1-3.5,1.6-5.8,1.6C387.2,172.5,384.6,171.4,382.5,169.1z"/>
	<path class="st0" d="M413.5,171.1c0.2,0.2,0.2,0.3-0.2,0.5c-1.1,0.8-2.1,1.1-3.2,1.1c-0.8,0-1.5-0.2-2.1-0.5
		c-0.8-0.5-1.6-1.1-2.1-2.1s-0.8-1.9-0.8-3.1v-13.4h-2.9c-0.2,0-0.3-0.2-0.3-0.3v-1.6c0-0.2,0.2-0.3,0.3-0.3h2.9v-6.1
		c0-0.2,0.2-0.3,0.3-0.3h1.6c0.2,0,0.3,0.2,0.3,0.3v6.1h3.4c0.2,0,0.3,0.2,0.3,0.3v1.6c0,0.2-0.2,0.3-0.3,0.3h-3.4V167
		c0,1.5,0.5,2.6,1.6,3.1c1,0.5,1.9,0.3,3.1-0.3c0.2-0.2,0.3-0.2,0.5,0.2L413.5,171.1z"/>
	<path class="st0" d="M421.2,145.6c-0.3,0.3-0.8,0.5-1.1,0.5c-0.5,0-0.8-0.2-1.1-0.5s-0.5-0.8-0.5-1.1c0-0.5,0.2-0.8,0.5-1.1
		s0.6-0.5,1.1-0.5s0.8,0.2,1.1,0.5s0.5,0.8,0.5,1.1C421.7,144.9,421.5,145.3,421.2,145.6z M419.3,172.5c-0.2,0-0.3-0.2-0.3-0.3
		v-20.6c0-0.2,0.2-0.3,0.3-0.3h1.6c0.2,0,0.3,0.2,0.3,0.3v20.6c0,0.2-0.2,0.3-0.3,0.3H419.3z"/>
	<path class="st0" d="M437.3,172.4c0,0.2-0.2,0.2-0.3,0.2h-1.6c-0.2,0-0.3-0.2-0.3-0.2l-7.6-20.6c0-0.2,0-0.2,0-0.3
		c0.2-0.2,0.2-0.2,0.3-0.2h1.8c0.2,0,0.2,0.2,0.3,0.2l6.5,17.1l6.5-17.1c0-0.2,0.2-0.2,0.3-0.2h1.8c0.2,0,0.2,0,0.3,0.2
		c0,0.2,0.2,0.2,0,0.3L437.3,172.4z"/>
	<path class="st0" d="M451.2,169.5c-2.1-2.1-3.2-4.7-3.2-7.6c0-3.1,1-5.5,3.1-7.6s4.5-3.1,7.4-3.1s5.2,1.1,7.3,3.1
		c1.9,2.1,2.9,4.5,2.9,7.4v0.5c0,0.2-0.2,0.3-0.3,0.3l-17.7,1.6c0.5,1.8,1.5,3.2,2.9,4.4s3.2,1.8,5.2,1.8c1.5,0,2.7-0.3,4-1.1
		c1.3-0.6,2.3-1.6,3.1-2.9c0.2-0.2,0.3-0.2,0.5-0.2l1.5,0.8c0.2,0.2,0.2,0.3,0.2,0.5c-1,1.6-2.3,2.7-3.9,3.7s-3.4,1.5-5.2,1.5
		C455.9,172.5,453.3,171.6,451.2,169.5z M452.8,155.9c-1.5,1.6-2.3,3.5-2.3,6l15.8-1.5c-0.2-2.1-1.1-3.7-2.6-5s-3.2-1.9-5.3-1.9
		C456.2,153.5,454.3,154.3,452.8,155.9z"/>
	<path class="st0" d="M508.5,172.2c0,0.2-0.2,0.3-0.3,0.3h-1.6c-0.2,0-0.3-0.2-0.3-0.3v-3.7c-1,1.3-2.3,2.3-3.7,2.9
		c-1.5,0.8-3.1,1.1-4.7,1.1c-2.9,0-5.5-1.1-7.6-3.1c-2.1-2.1-3.1-4.7-3.1-7.6s1.1-5.5,3.1-7.6c2.1-2.1,4.7-3.2,7.6-3.2
		c1.8,0,3.2,0.3,4.7,1.1c1.5,0.6,2.6,1.8,3.7,2.9v-17.6c0-0.2,0.2-0.3,0.3-0.3h1.6c0.2,0,0.3,0.2,0.3,0.3V172.2z M497.8,170.3
		c2.3,0,4.4-0.8,6-2.4c1.6-1.6,2.4-3.5,2.4-6c0-2.3-0.8-4.4-2.4-6s-3.5-2.4-6-2.4c-2.3,0-4.2,0.8-6,2.4c-1.6,1.6-2.4,3.5-2.4,6
		c0,2.3,0.8,4.2,2.4,6C493.5,169.5,495.4,170.3,497.8,170.3z"/>
	<path class="st0" d="M517.5,169.5c-2.1-2.1-3.2-4.7-3.2-7.6c0-3.1,1-5.5,3.1-7.6s4.5-3.1,7.4-3.1s5.2,1.1,7.3,3.1
		c1.9,2.1,2.9,4.5,2.9,7.4v0.5c0,0.2-0.2,0.3-0.3,0.3l-17.7,1.6c0.5,1.8,1.5,3.2,2.9,4.4c1.5,1.1,3.2,1.8,5.2,1.8
		c1.5,0,2.7-0.3,4-1.1c1.3-0.6,2.3-1.6,3.1-2.9c0.2-0.2,0.3-0.2,0.5-0.2l1.5,0.8c0.2,0.2,0.2,0.3,0.2,0.5c-1,1.6-2.3,2.7-3.9,3.7
		c-1.6,1-3.4,1.5-5.2,1.5C522.2,172.5,519.6,171.6,517.5,169.5z M518.9,155.9c-1.5,1.6-2.3,3.5-2.3,6l15.8-1.5
		c-0.2-2.1-1.1-3.7-2.6-5s-3.2-1.9-5.3-1.9C522.3,153.5,520.6,154.3,518.9,155.9z"/>
	<path class="st0" d="M548.9,172.4c0,0.2-0.2,0.2-0.3,0.2h-1.5c-0.2,0-0.3-0.2-0.3-0.2l-7.6-20.6c0-0.2,0-0.2,0-0.3
		c0.2-0.2,0.2-0.2,0.3-0.2h1.8c0.2,0,0.2,0.2,0.3,0.2l6.5,17.1l6.5-17.1c0-0.2,0.2-0.2,0.3-0.2h1.8c0.2,0,0.2,0,0.3,0.2
		c0,0.2,0.2,0.2,0,0.3L548.9,172.4z"/>
	<path class="st0" d="M563,169.5c-2.1-2.1-3.2-4.7-3.2-7.6c0-3.1,1-5.5,3.1-7.6s4.5-3.1,7.4-3.1s5.2,1.1,7.3,3.1
		c1.9,2.1,2.9,4.5,2.9,7.4v0.5c0,0.2-0.2,0.3-0.3,0.3l-17.7,1.6c0.5,1.8,1.5,3.2,2.9,4.4s3.2,1.8,5.2,1.8c1.5,0,2.7-0.3,4-1.1
		c1.3-0.6,2.3-1.6,3.1-2.9c0.2-0.2,0.3-0.2,0.5-0.2l1.5,0.8c0.2,0.2,0.2,0.3,0.2,0.5c-1,1.6-2.3,2.7-3.9,3.7c-1.6,1-3.4,1.5-5.2,1.5
		C567.6,172.5,565.1,171.6,563,169.5z M564.4,155.9c-1.5,1.6-2.3,3.5-2.3,6l15.9-1.5c-0.2-2.1-1.1-3.7-2.6-5s-3.2-1.9-5.3-1.9
		C567.8,153.5,566,154.3,564.4,155.9z"/>
	<path class="st0" d="M588.1,172.5c-0.2,0-0.3-0.2-0.3-0.3v-34.7c0-0.2,0.2-0.3,0.3-0.3h1.6c0.2,0,0.3,0.2,0.3,0.3v34.7
		c0,0.2-0.2,0.3-0.3,0.3H588.1z"/>
	<path class="st0" d="M598.8,169.5c-2.1-2.1-3.1-4.7-3.1-7.6s1.1-5.5,3.1-7.6c2.1-2.1,4.5-3.1,7.6-3.1c2.9,0,5.5,1.1,7.6,3.1
		c2.1,2.1,3.2,4.5,3.2,7.6c0,2.9-1.1,5.5-3.2,7.6c-2.1,2.1-4.5,3.1-7.6,3.1C603.4,172.5,600.9,171.6,598.8,169.5z M600.4,156.1
		c-1.6,1.6-2.4,3.5-2.4,6c0,2.3,0.8,4.2,2.4,6c1.6,1.6,3.5,2.4,6,2.4c2.3,0,4.2-0.8,6-2.4c1.6-1.6,2.4-3.5,2.4-6
		c0-2.3-0.8-4.2-2.4-6c-1.6-1.6-3.5-2.4-6-2.4C604.1,153.5,602.2,154.3,600.4,156.1z"/>
	<path class="st0" d="M634.9,151.1c2.9,0,5.5,1.1,7.7,3.2c2.1,2.1,3.2,4.5,3.2,7.6s-1.1,5.5-3.2,7.6c-2.1,2.1-4.7,3.2-7.7,3.2
		c-1.8,0-3.2-0.3-4.8-1.1c-1.5-0.6-2.6-1.8-3.7-2.9v17.6c0,0.2-0.2,0.3-0.3,0.3h-1.8c-0.2,0-0.3-0.2-0.3-0.3v-34.5
		c0-0.2,0.2-0.3,0.3-0.3h1.8c0.2,0,0.3,0.2,0.3,0.3v3.7c1-1.3,2.3-2.3,3.7-2.9C631.7,151.6,633.3,151.1,634.9,151.1z M634.9,170.3
		c2.3,0,4.4-0.8,6-2.4c1.6-1.6,2.4-3.5,2.4-6c0-2.3-0.8-4.2-2.4-6c-1.6-1.6-3.7-2.4-6-2.4s-4.4,0.8-6,2.4c-1.6,1.6-2.4,3.5-2.4,6
		c0,2.3,0.8,4.4,2.4,6C630.5,169.5,632.6,170.3,634.9,170.3z"/>
	<path class="st0" d="M654.2,169.5c-2.1-2.1-3.2-4.7-3.2-7.6c0-3.1,1-5.5,3.1-7.6s4.5-3.1,7.4-3.1s5.2,1.1,7.3,3.1
		c1.9,2.1,2.9,4.5,2.9,7.4v0.5c0,0.2-0.2,0.3-0.3,0.3l-17.7,1.6c0.5,1.8,1.5,3.2,2.9,4.4s3.2,1.8,5.2,1.8c1.5,0,2.7-0.3,4-1.1
		c1.3-0.6,2.3-1.6,3.1-2.9c0.2-0.2,0.3-0.2,0.5-0.2l1.5,0.8c0.2,0.2,0.2,0.3,0.2,0.5c-1,1.6-2.3,2.7-3.9,3.7c-1.6,1-3.4,1.5-5.2,1.5
		C658.8,172.5,656.3,171.6,654.2,169.5z M655.7,155.9c-1.5,1.6-2.3,3.5-2.3,6l15.8-1.5c-0.2-2.1-1.1-3.7-2.6-5s-3.2-1.9-5.3-1.9
		C659.1,153.5,657.1,154.3,655.7,155.9z"/>
	<path class="st0" d="M688.6,151.4c0.2,0,0.3,0.2,0.3,0.5l-0.3,1.6c0,0.2-0.2,0.3-0.5,0.3s-0.6-0.2-1-0.2c-1.8,0-3.1,0.6-4.4,1.8
		c-1.1,1.1-1.8,2.6-1.8,4.4v12.6c0,0.2-0.2,0.3-0.3,0.3H679c-0.2,0-0.3-0.2-0.3-0.3v-20.8c0-0.2,0.2-0.3,0.3-0.3h1.6
		c0.2,0,0.3,0.2,0.3,0.3v2.4c1.8-1.8,3.7-2.6,6.1-2.6C687.8,151.2,688.1,151.4,688.6,151.4z"/>
</g>
<g>
	<path class="st0" d="M293.2,58c0.3,0,0.5,0.2,0.5,0.5v6.8c0,0.3-0.2,0.5-0.5,0.5h-16.3v53.7c0,0.3-0.2,0.5-0.5,0.5h-6.8
		c-0.3,0-0.5-0.2-0.5-0.5V65.8h-16.3c-0.3,0-0.5-0.2-0.5-0.5v-6.8c0-0.3,0.2-0.5,0.5-0.5C252.7,58,293.2,58,293.2,58z"/>
	<path class="st0" d="M309.9,74c-1.1,0-2.1-0.5-2.9-1.3s-1.3-1.8-1.3-2.9c0-1.1,0.5-2.1,1.3-2.9c0.8-0.8,1.8-1.3,2.9-1.3
		s2.1,0.5,2.9,1.3s1.3,1.8,1.3,2.9s-0.5,2.1-1.3,2.9C312.2,73.5,311.1,74,309.9,74z M313,81.1c0.3,0,0.5,0.2,0.5,0.5v37.9
		c0,0.3-0.2,0.5-0.5,0.5h-6.1c-0.3,0-0.5-0.2-0.5-0.5V81.6c0-0.3,0.2-0.5,0.5-0.5H313z"/>
	<path class="st0" d="M385.3,107.4c0,3.5,0,6.6,0.2,9v3.1c0,0.3-0.2,0.5-0.5,0.5h-6.1c-0.3,0-0.5-0.2-0.5-0.5v-3.1v-9
		c0-1,0-2.4,0-4.4v-1.1v-1.3c0-1,0-1.8,0-2.4v-1.3v-1c0-0.6-0.2-1.3-0.5-1.8c-0.5-1.3-1.1-2.3-1.9-3.2s-1.9-1.6-3.1-2.1
		c-0.6-0.2-1.1-0.5-1.8-0.5h-0.2c-0.2,0-0.2,0-0.2,0h-0.2h-0.2c-0.2,0-0.2,0-0.3,0h-0.3l0,0h-0.2h-0.2h-0.2c-2.3,0.2-4.4,1-6,2.7
		c-0.6,0.6-1.1,1.5-1.5,2.1c-0.3,0.6-0.5,1.3-0.6,1.9c0,0.3-0.2,0.6-0.2,0.8V96v0.2v0.2c0,0.3,0,0.5,0,0.6l-0.2,1.5
		c0,1.3,0,2.9,0,4.7v1.1v1.1c0,0.8,0,1.5,0,2.1c0,3.5,0,6.6,0,9v3.1c0,0.3-0.2,0.5-0.5,0.5H354c-0.3,0-0.5-0.2-0.5-0.5v-3.1
		c0-2.4,0-5.5,0-9c0-1,0-2.4,0-4.4V102v-1.3c0-1,0-1.8,0-2.4V97v-1c0-0.6-0.2-1.3-0.5-1.8c-0.5-1.3-1.1-2.3-1.9-3.2
		s-1.9-1.6-3.1-2.1c-0.6-0.2-1.1-0.5-1.8-0.5H346c-0.2,0-0.2,0-0.2,0h-0.2l0,0c-0.2,0-0.2,0-0.3,0H345l0,0h-0.2h-0.5
		c-2.3,0.2-4.4,1-6,2.7c-0.6,0.6-1.1,1.5-1.5,2.1c-0.3,0.6-0.5,1.3-0.6,1.9c0,0.3-0.2,0.6-0.2,0.8v0.2v0.2v0.2c0,0.3,0,0.5,0,0.6
		v0.5v21.9c0,0.3-0.2,0.5-0.5,0.5h-6.3c-0.3,0-0.5-0.2-0.5-0.5V81.4c0-0.3,0.2-0.5,0.5-0.5h6.3c0.3,0,0.5,0.2,0.5,0.5v2.9
		c0.6-0.5,1.3-1,1.9-1.3c1.8-1,3.9-1.5,6-1.8h0.8h0.2h0.2h0.2h0.3c0,0,0.2,0,0.3,0h0.3h0.2c0.2,0,0.3,0,0.5,0h0.5
		c1.1,0.2,2.3,0.5,3.2,0.8c2.3,0.8,4.2,2.1,5.8,3.7c0.5,0.5,0.8,1,1.3,1.5c0.3-0.3,0.5-0.6,0.8-1c1.3-1.5,2.7-2.6,4.4-3.4
		c1.8-1,3.9-1.5,6-1.8h0.8h0.2h0.2h0.2h0.3c0,0,0.2,0,0.3,0h0.2h0.3c0.2,0,0.3,0,0.5,0h0.5c1.1,0.2,2.3,0.5,3.2,0.8
		c2.3,0.8,4.2,2.1,5.8,3.7c1.6,1.8,2.7,3.5,3.5,5.8c0.3,1.1,0.6,2.1,0.8,3.2c0,0.5,0.2,1.1,0.2,1.8v1.3c0,0.8,0,1.6,0,2.4v1.3v1.1
		C385.3,105.1,385.3,106.4,385.3,107.4z"/>
	<path class="st0" d="M416.4,80.9c5.5,0,10,1.9,13.9,5.6c3.9,3.9,5.8,8.4,5.8,13.9s-1.9,10-5.8,13.9s-8.4,5.6-13.9,5.6
		c-5.3,0-10-1.9-13.9-5.6c-3.9-3.9-5.8-8.4-5.8-13.9c0-5.3,1.9-10,5.8-13.9C406.4,82.9,411.1,80.9,416.4,80.9z M416.4,112.7
		c3.4,0,6.3-1.1,8.5-3.5c2.4-2.4,3.5-5.3,3.5-8.5s-1.1-6.3-3.5-8.5c-2.4-2.4-5.3-3.5-8.5-3.5s-6.3,1.1-8.5,3.5
		c-2.4,2.4-3.5,5.2-3.5,8.5s1.1,6.3,3.5,8.5C410.3,111.6,413,112.7,416.4,112.7z"/>
	<path class="st0" d="M461.7,112.5c1,0.5,2.1,0.3,3.2-0.5c0.3-0.2,0.5-0.2,0.8,0.2l3.7,5c0.3,0.3,0.2,0.6-0.2,0.8
		c-2.1,1.5-4.2,2.1-6.5,2.1c-1.5,0-2.9-0.3-4.4-1.1c-1.8-0.8-3.2-2.3-4.2-4s-1.5-3.9-1.5-6.1V88.3h-6.1c-0.3,0-0.5-0.2-0.5-0.5v-6.1
		c0-0.3,0.2-0.5,0.5-0.5h6V73c0-0.3,0.2-0.5,0.5-0.5h6.1c0.3,0,0.5,0.2,0.5,0.5v8.2h6c0.3,0,0.5,0.2,0.5,0.5v6.1
		c0,0.3-0.2,0.5-0.5,0.5h-6v20.6C459.9,110.8,460.6,112.1,461.7,112.5z"/>
	<path class="st0" d="M515.7,107.4c0,3.7,0,6.6,0,9.2v3.1c0,0.3-0.2,0.5-0.5,0.5h-6.1c-0.3,0-0.5-0.2-0.5-0.5v-3.1
		c0-2.4,0-5.5,0.2-9.2c0-1.1,0-2.6,0-4.5v-1.1v-1.4c0-1,0-1.8,0-2.6v-0.6v-0.5c0-0.3,0-0.6-0.2-1c-0.2-0.6-0.3-1.3-0.5-1.9
		c-0.5-1.3-1.3-2.3-2.1-3.2c-1-1-2.1-1.6-3.2-2.1c-0.6-0.2-1.3-0.3-1.9-0.5h-0.2h-0.2c0,0-0.2,0-0.3,0h-0.3h-0.2h-0.2h-0.3H499h-0.3
		c-1.3,0.2-2.3,0.5-3.4,1c-1,0.5-1.8,1.1-2.6,1.9c-0.6,0.6-1.1,1.5-1.5,2.3c-0.3,0.6-0.5,1.3-0.6,2.1c-0.2,0.3-0.2,0.6-0.2,0.8v0.2
		v0.2v0.2c0,0.3,0,0.5,0,0.6l-0.2,2.3v19.8c0,0.5-0.2,0.6-0.5,0.6h-6.3c-0.3,0-0.5-0.2-0.5-0.6V58.3c0-0.3,0.2-0.5,0.5-0.5h6.3
		c0.3,0,0.5,0.2,0.5,0.5v26.3c0.6-0.5,1.5-1,2.1-1.3c1.8-1,3.9-1.6,6-1.9h0.5h0.5h0.5h0.2h0.3h0.3h0.2h0.2h0.5c0.2,0,0.3,0,0.5,0
		c1.1,0.2,2.3,0.3,3.4,0.6c2.3,0.8,4.2,1.9,6,3.5s2.9,3.5,3.9,5.8c0.5,1.1,0.8,2.1,1,3.2c0.2,0.5,0.2,1.1,0.2,1.6v0.8v0.6
		c0,0.8,0,1.6,0,2.6v1.3v1.1C515.7,104.8,515.7,106.2,515.7,107.4z"/>
	<path class="st0" d="M545.4,82.9c5,0,9.2,1.9,12.6,5.5c3.4,3.5,5.2,7.9,5.2,12.9v2.3c0,0.3-0.2,0.5-0.5,0.5l-27.4,2.4
		c1,2.1,2.3,3.5,4.2,4.8s4,1.9,6.3,1.9c1.9,0,3.9-0.5,5.5-1.5c1.8-1,3.2-2.3,4.2-3.9c0.2-0.3,0.5-0.3,0.6-0.2l5.2,2.9
		c0.3,0.2,0.5,0.5,0.2,0.8c-1.8,2.7-4,4.8-6.8,6.5c-2.9,1.6-5.8,2.4-9,2.4c-5.2,0-9.5-1.8-13.2-5.5s-5.5-8.1-5.5-13.2
		c0-5.2,1.8-9.7,5.3-13.2C536,84.6,540.4,82.9,545.4,82.9z M555.9,97.7c-0.6-2.4-1.8-4.4-3.7-5.6c-1.9-1.5-4.2-2.1-6.9-2.1
		s-5.2,1-7.3,2.7c-2.1,1.8-3.2,4.2-3.5,6.9L555.9,97.7z M554.4,63c0.3,0,0.5,0.2,0.6,0.5l1,6.1c0,0.3-0.2,0.6-0.5,0.6L536,73.1
		c-0.3,0-0.5-0.2-0.6-0.5l-1-6.1c0-0.3,0.2-0.5,0.5-0.6L554.4,63z"/>
	<path class="st0" d="M592.5,81.1c5.2,0,9.5,1.9,13.2,5.8c3.7,3.7,5.5,8.2,5.5,13.5v2.4c0,0.3-0.2,0.5-0.5,0.5l-28.7,2.4
		c1,2.1,2.4,3.7,4.5,5s4.2,1.9,6.6,1.9c2.1,0,4-0.5,5.8-1.5s3.4-2.4,4.5-4.2c0.2-0.3,0.5-0.5,0.8-0.2l5.3,3.1
		c0.3,0.2,0.5,0.5,0.2,0.8c-1.8,2.9-4.2,5.2-7.1,6.8c-2.9,1.6-6.1,2.4-9.5,2.4c-5.3,0-10-1.9-13.7-5.8c-3.9-3.9-5.8-8.4-5.8-13.7
		c0-5.5,1.8-10.2,5.5-13.9C582.8,83,587.2,81.1,592.5,81.1z M603.4,96.6c-0.6-2.4-1.9-4.5-3.9-6c-2.1-1.5-4.4-2.3-7.1-2.3
		c-2.9,0-5.5,1-7.6,2.9s-3.4,4.4-3.9,7.3L603.4,96.6z"/>
	<path class="st0" d="M689.2,58.5c0.2-0.3,0.5-0.5,0.8-0.5h6.1c0.3,0,0.5,0.2,0.6,0.3s0.2,0.5,0.2,0.8l-20.8,60.5
		c-0.2,0.3-0.3,0.5-0.8,0.5h-5.5c-0.5,0-0.6-0.2-0.8-0.5l-20.8-60.5c-0.2-0.3,0-0.5,0.2-0.8c0.2-0.2,0.5-0.3,0.6-0.3h6.1
		c0.5,0,0.6,0.2,0.8,0.5l16.6,48.2L689.2,58.5z"/>
	<path class="st0" d="M733.1,101.1c0,1,0,1.8,0,2.3c0,2.6,0.2,5.5,0.5,9c0.2,1.3,0.3,2.6,0.5,4c0.2,1,0.2,2.1,0.5,2.9
		c0,0.5-0.2,0.6-0.5,0.6h-6.3c-0.3,0-0.5-0.2-0.5-0.5c-0.2-1.1-0.3-2.1-0.5-3.2c-2.9,2.4-6.5,3.7-10.5,3.7c-4.2,0-7.4-1.1-9.8-3.2
		c-2.3-2.1-3.5-5.2-3.5-9c0-3.4,1.3-6.1,3.7-8.4c3.7-3.4,10.2-4.7,19.2-4.2c-0.2-2.6-0.8-4.4-1.8-5.3c-1-1.1-2.7-1.6-5.3-1.6
		c-1.9,0-3.7,0.3-5.3,1c-0.6,0.2-1.1,0.5-1.6,0.8c-0.3,0.2-0.6,0.5-1,0.6c-0.3,0.2-0.5,0.2-0.8,0l-4.5-4.2c-0.3-0.3-0.3-0.5,0-0.8
		c0.2-0.2,0.5-0.5,0.6-0.5c0.3-0.3,0.6-0.5,1-0.8c0.8-0.6,1.8-1.1,2.7-1.6c2.7-1.3,5.6-1.9,8.9-1.9c4.5,0,8.1,1.3,10.6,3.7
		c1.8,1.8,2.9,4.2,3.4,6.9c0.5,1.9,0.6,4.5,0.5,7.9c0,0.5,0,0.6,0,0.6S733.1,100.6,733.1,101.1z M716,112.9c0.8,0,1.6-0.2,2.4-0.3
		c1.1-0.3,2.1-0.8,2.9-1.3c2.3-1.8,3.7-4.5,4.2-8.4c-1.3-0.2-2.6-0.2-3.7-0.2c-5.2,0-8.7,0.8-10.6,2.4c-0.8,0.6-1.1,1.6-1.1,2.9
		c0,1.6,0.3,2.7,1,3.4C712,112.2,713.6,112.9,716,112.9z"/>
	<path class="st0" d="M756.2,83.7c2.6-1.6,5.3-2.4,8.4-2.4c1,0,1.8,0.2,2.6,0.2c0.3,0,0.5,0.3,0.5,0.6l-1.3,6.1
		c-0.2,0.3-0.3,0.5-0.6,0.5s-0.8-0.2-1.1-0.2c-2.1,0-4,0.8-5.6,2.1s-2.6,3.2-2.7,5.3v23.5c0,0.3-0.2,0.5-0.5,0.5h-6.3
		c-0.3,0-0.5-0.2-0.5-0.5v-38c0-0.3,0.2-0.5,0.5-0.5h6.3c0.3,0,0.5,0.2,0.5,0.5v2.3H756.2z"/>
	<path class="st0" d="M806.6,101.1c0,1,0,1.8,0,2.3c0,2.6,0.2,5.5,0.5,9c0.2,1.3,0.3,2.6,0.5,4c0.2,1,0.2,2.1,0.5,2.9
		c0,0.5-0.2,0.6-0.5,0.6h-6.3c-0.3,0-0.5-0.2-0.5-0.5c-0.2-1.1-0.3-2.1-0.5-3.2c-2.9,2.4-6.5,3.7-10.5,3.7c-4.2,0-7.4-1.1-9.8-3.2
		c-2.3-2.1-3.5-5.2-3.5-9c0-3.4,1.3-6.1,3.7-8.4c3.7-3.4,10.2-4.7,19.2-4.2c-0.2-2.6-0.8-4.4-1.8-5.3c-1-1.1-2.7-1.6-5.3-1.6
		c-1.9,0-3.7,0.3-5.3,1c-0.6,0.2-1.1,0.5-1.6,0.8c-0.3,0.2-0.6,0.5-1,0.6c-0.3,0.2-0.5,0.2-0.8,0l-4.7-3.9c-0.3-0.3-0.3-0.5,0-0.8
		c0.2-0.2,0.5-0.5,0.6-0.5c0.3-0.3,0.6-0.5,1-0.8c0.8-0.6,1.8-1.1,2.7-1.6c2.7-1.3,5.6-1.9,8.9-1.9c4.5,0,8.1,1.3,10.6,3.7
		c1.8,1.8,2.9,4.2,3.4,6.9c0.5,1.9,0.6,4.5,0.5,7.9c0,0.5,0,0.6,0,0.6S806.8,100.6,806.6,101.1z M789.7,112.9c0.8,0,1.6-0.2,2.4-0.3
		c1.1-0.3,2.1-0.8,2.9-1.3c2.3-1.8,3.7-4.5,4.2-8.4c-1.3-0.2-2.6-0.2-3.7-0.2c-5.2,0-8.7,0.8-10.6,2.4c-0.8,0.6-1.1,1.6-1.1,2.9
		c0,1.6,0.3,2.7,1,3.4C785.5,112.2,787.3,112.9,789.7,112.9z"/>
	<path class="st0" d="M827.3,74c-1.1,0-2.1-0.5-2.9-1.3c-0.8-0.8-1.3-1.8-1.3-2.9c0-1.1,0.5-2.1,1.3-2.9c0.8-0.8,1.8-1.3,2.9-1.3
		c1.1,0,2.1,0.5,2.9,1.3c0.8,0.8,1.3,1.8,1.3,2.9s-0.5,2.1-1.3,2.9C829.4,73.5,828.4,74,827.3,74z M830.3,81.1
		c0.3,0,0.5,0.2,0.5,0.5v37.9c0,0.3-0.2,0.5-0.5,0.5H824c-0.3,0-0.5-0.2-0.5-0.5V81.6c0-0.3,0.2-0.5,0.5-0.5H830.3z"/>
	<path class="st0" d="M847.3,120.1c-0.3,0-0.5-0.2-0.5-0.5V58.5c0-0.3,0.2-0.5,0.5-0.5h6.3c0.3,0,0.5,0.2,0.5,0.5v61.1
		c0,0.3-0.2,0.5-0.5,0.5H847.3z"/>
	<path class="st0" d="M871.1,120.1c-0.3,0-0.5-0.2-0.5-0.5V58.5c0-0.3,0.2-0.5,0.5-0.5h6.3c0.3,0,0.5,0.2,0.5,0.5v61.1
		c0,0.3-0.2,0.5-0.5,0.5H871.1z"/>
	<path class="st0" d="M921.6,101.1c0,1,0,1.8,0,2.3c0,2.6,0.2,5.5,0.5,9c0.2,1.3,0.3,2.6,0.5,4c0.2,1,0.2,2.1,0.5,2.9
		c0,0.5-0.2,0.6-0.5,0.6h-6.3c-0.3,0-0.5-0.2-0.5-0.5c-0.2-1.1-0.3-2.1-0.5-3.2c-2.9,2.4-6.5,3.7-10.5,3.7c-4.2,0-7.4-1.1-9.8-3.2
		c-2.3-2.1-3.5-5.2-3.5-9c0-3.4,1.3-6.1,3.7-8.4c3.7-3.4,10.2-4.7,19.2-4.2c-0.2-2.6-0.8-4.4-1.8-5.3c-1-1.1-2.7-1.6-5.3-1.6
		c-1.9,0-3.7,0.3-5.3,1c-0.6,0.2-1.1,0.5-1.6,0.8c-0.3,0.2-0.6,0.5-1,0.6c-0.3,0.2-0.5,0.2-0.8,0l-4.6-4.2c-0.3-0.3-0.3-0.5,0-0.8
		c0.2-0.2,0.5-0.5,0.6-0.5c0.3-0.3,0.6-0.5,1-0.8c0.8-0.6,1.8-1.1,2.7-1.6c2.7-1.3,5.6-1.9,8.9-1.9c4.5,0,8.1,1.3,10.6,3.7
		c1.8,1.8,2.9,4.2,3.4,6.9c0.5,1.9,0.6,4.5,0.5,7.9c0,0.5,0,0.6,0,0.6S921.6,100.6,921.6,101.1z M904.5,112.9c0.8,0,1.6-0.2,2.4-0.3
		c1.1-0.3,2.1-0.8,2.9-1.3c2.3-1.8,3.7-4.5,4.2-8.4c-1.3-0.2-2.6-0.2-3.7-0.2c-5.2,0-8.7,0.8-10.6,2.4c-0.8,0.6-1.1,1.6-1.1,2.9
		c0,1.6,0.3,2.7,1,3.4C900.5,112.2,902.1,112.9,904.5,112.9z"/>
	<path class="st0" d="M960,108.3v0.3v0.5v0.5v0.2v0.2c0,0.2,0,0.2,0,0.3l-0.2,0.6l-0.2,0.6c-0.3,1.6-1,3.1-1.9,4.4s-2.1,2.1-3.5,2.9
		c-1.1,0.5-2.3,1-3.7,1.3c-1.3,0.2-2.3,0.3-3.2,0.5h-0.5h-0.2h-0.2h-0.2h-0.6c-0.2,0-0.5,0-0.6,0c-0.2,0-0.5,0-0.8-0.2
		c-0.8-0.2-1.8-0.3-2.7-0.5c-1.5-0.3-2.9-1-4.2-1.8c-0.6-0.3-1.3-0.8-1.9-1.3c-0.5-0.3-0.8-0.6-1.1-1c-0.3-0.3-0.3-0.5,0-0.8
		l4.5-4.4c0.2-0.2,0.5-0.2,0.8,0c0.2,0.2,0.5,0.3,0.6,0.5c0.3,0.2,0.5,0.3,0.6,0.5c0.8,0.5,1.6,0.8,2.6,1.1l0.5,0.2l0.5,0.2h0.2h0.2
		c0.2,0,0.3,0,0.5,0h0.2h0.2c0.2,0,0.3,0,0.5,0h0.6h0.5c0.5,0,1.3,0,2.1-0.2s1.3-0.3,1.8-0.6c1-0.5,1.6-1.3,1.8-2.3v-0.2v-0.2v-0.2
		v-0.3v-0.2v-0.5l0,0v-0.2V108v-0.2v-0.2c-0.2-0.5-0.3-1-0.6-1.5c-0.8-1-2.3-1.8-4.4-2.9l-1.6-0.8l-0.8-0.3l-0.2-0.2H945l0,0
		l-0.5-0.2c-1.5-0.6-2.6-1.3-3.4-1.8c-1.5-0.8-2.6-1.8-3.5-2.7c-0.2-0.2-0.2-0.3-0.5-0.5l-0.3-0.5c-0.3-0.5-0.5-0.8-0.6-1.1
		l-0.3-0.6c-0.2-0.2-0.2-0.5-0.2-0.6l-0.2-0.6l-0.2-0.3v-0.3c0-0.3-0.2-0.5-0.2-0.8v-0.5v-0.2l0,0v0.2v-0.2v0.2l0,0l0,0v-0.5
		c0-0.3,0-0.6,0.2-1.1c0-0.3,0.2-0.6,0.3-1.1c0.5-1.6,1.3-2.9,2.3-4c1-1,2.1-1.8,3.5-2.3c1-0.3,2.1-0.6,3.4-0.8
		c0.8,0,1.3-0.2,1.6-0.2h0.8h0.8c0.8,0,1.8,0.2,2.7,0.3c1.5,0.3,2.9,0.8,4.2,1.6c0.5,0.3,1,0.5,1.5,0.8c0.3,0.2,0.8,0.5,1.1,0.8
		c0.2,0.2,0.2,0.2,0.5,0.5s0.3,0.5,0,0.8l-4,3.9c-0.2,0.2-0.5,0.2-0.8,0c-0.2-0.2-0.5-0.3-0.6-0.5c-0.3-0.2-0.5-0.3-0.6-0.5
		c-0.8-0.5-1.6-0.6-2.6-1c-0.6-0.2-1.3-0.2-1.6-0.2h-0.5h-0.5c-0.2,0-0.5,0-0.5,0h-0.2H946c-0.8,0.2-1.3,0.3-1.8,0.5
		s-0.8,0.5-1.1,0.8s-0.5,0.6-0.6,1.1v0.2v0.2v0.2v0.2v0.2v0.2V92l0,0l0,0l0,0l0,0v0.2v0.2l0.2,0.2l0.2,0.3l0.2,0.2l0.2,0.2
		c0.5,0.5,1,0.8,1.8,1.3c0.6,0.3,1.6,0.8,2.7,1.3l0.3,0.2l0.5,0.2l0.8,0.5l1.5,0.6c1.5,0.6,2.6,1.3,3.4,1.8c1.5,0.8,2.6,1.8,3.4,2.9
		c1.1,1.3,1.9,2.9,2.3,4.5l0.2,0.6c0,0.3,0.2,0.5,0.2,0.6L960,108.3z"/>
</g>
<polygon class="st0" points="150.1,0 0,86.9 0,144.6 50,115.6 50.3,231.4 100.3,202.4 100.1,86.7 150.1,57.9 "/>
<polygon class="st0" points="50,57.9 150.1,115.6 150.1,57.9 200.1,28.8 200.3,202.2 0,86.9 "/>
</svg>
