<?xml version="1.0" encoding="utf-8"?>
<!-- Generator: Adobe Illustrator 17.1.0, SVG Export Plug-In . SVG Version: 6.00 Build 0)  -->
<!DOCTYPE svg PUBLIC "-//W3C//DTD SVG 1.1//EN" "http://www.w3.org/Graphics/SVG/1.1/DTD/svg11.dtd">
<svg version="1.1" id="Calque_1" xmlns="http://www.w3.org/2000/svg" xmlns:xlink="http://www.w3.org/1999/xlink" x="0px" y="0px"
	 viewBox="78.9 -0.6 855 540.7" enable-background="new 78.9 -0.6 855 540.7" xml:space="preserve">
<g>
	<path fill="#FFFFFF" d="M554.3,400.7c-10.9-14.4-20.4-27.3-30.8-39.7c-3.2-4-9.2-8.9-14.1-8.3c-4.6,3.5-5.2,12.1-3.8,17
		c5.2,15.2,10.9,30.5,18.7,44.3c5.2,9.2,5.5,14.7-1.2,22.8c-26.4,31.9-28.4,53.2-9.4,87.6c-4.3,12.6-13.2,15.8-25.6,14.4
		c-11.5-1.2-23-1.2-34.5-2c-7.8-0.6-18.1,1.2-19.3-10s5.5-21.9,15.8-22.5c21.3-1.2,20.7-14.9,20.2-29
		c-3.2-65.6-12.1-129.7-49.8-186.3c-8-12.1-13.2-26.4-18.7-40.2c-8.6-21-12.9-41.9-5.5-65.6c3.8-12.1,0.6-27-1.7-40.2
		c-1.7-9.2-9.4-12.6-19-9.7c-19.3,6.4-35.7-2.3-51.8-10.6c-9.2-4.9-19.3-33.7-15.8-44c1.2-3.2,4.3-6.1,7.2-7.8
		c8.3-4.9,17.8-7.8,25.3-13.5c6.4-4.9,10.6-12.6,15.8-19.3c4.6-6.1,7.8-14.1,13.8-18.1c52.9-34.3,83.4-26,130,29.2
		c19.3,23,31.9,51.5,51.5,74.1c56.9,65.9,115.6,130.6,173.9,195.2c27.9,30.8,55.2,61.5,65,103.3c2.9,12.9,2.6,26.4,2.6,39.9
		c0,11.8,1.7,22.5,13.2,27.9c11.5,5.5,18.7-2.9,26.7-9.2c29.3-22.8,32.2-81.7-6.1-100.7c-9.4-4.9-17.8-12.9-24.7-21.6
		c-13.5-16.4-6.1-33.4,14.7-36.3c35.7-5.2,87.9,20.4,106.1,51.5c17.8,30.2,13.2,76.7-10.9,108.1c-24.7,31.9-57.5,52.1-97.5,54.1
		c-66.1,2.9-132.3,2-198.1,2.6c-10.9,0-15.5-6.9-11.2-17.3c13.8-34.5,6.9-63.5-20.4-88.2c-10-9.2-2-17.8,1.2-27
		c5.2-14.7,8.6-29.9,12.1-44.8c1.2-4-1.2-9.4-3.8-10.3c-5.2-1.2-8.9,1.7-10.9,4.6c-8.3,10.3-15.5,21.6-23,32.8
		C557.9,391.2,556.5,395.8,554.3,400.7z"/>
	<path fill="#FFFFFF" d="M188,512.9c-1.2-13.2-2.6-26.4-3.8-39.7c-2.6-32.2,9.2-58.3,32.5-80.8c21.3-20.4,41.9-41.9,61.5-64.1
		c6.7-7.5,8.6-18.7,13.5-27.9c6.9-12.6,14.4-25.3,22.2-37.4c4.6-7.2,9.7-13.8,15.2-20.4c5.2-6.1,10.9-11.8,18.7-17
		c3.2,20.4,14.1,32.2,29.3,41.9c5.8,3.8,7.8,13.2,10.9,20.4c1.2,2.6,0.6,5.8,1.2,8.3c5.5,25.6,5.2,27-19.9,36
		c-11.8,4.3-10.3,13.2-6.4,19.6c17.3,27.9,10.9,55-0.3,82.5c-8.9,22.2-14.4,44.8-9.4,68.7c1.7,8,2,17.3,13.8,19
		c2.6,0.3,6.9,7.2,6.4,9.4c-1.2,3.5-6.1,7.2-9.7,7.8c-13.2,2.6-23.8-0.9-26.7-16.1c-3.8-20.2-7.5-40.2-11.8-60.1
		c-1.4-7.5-4-14.7-6.4-22.5c-0.6,15.5,1.4,29.9-2.9,42.5c-4.3,12.3-14.7,22.8-23.6,35.7c8,0,16.7-0.6,25,0.3
		c10,0.9,16.7,6.4,18.1,19c-5.2,0.6-10,1.7-15.2,1.7c-38.9,0.3-77.6-0.3-116.5,0.3c-14.9,0.3-25.6-5.5-34.5-16.7
		c-29.9-37.7-29-79.4-14.9-122.5c4.9-14.9,9.4-30.2,13.5-45.4c3.5-13.5,3.2-13.5-10.3-24.4c-18.3,47.1-20.1,99.4-46,143.4
		c-1.2-0.3-2.3-0.9-3.5-1.2c3.8-44.8,7.2-90,11.2-138c-14.4,8-26.4,14.7-38,21.3c-6.1-11.2,1.7-18.1,7.2-26.4
		c8.3-12.9,16.4-26.4,21.6-40.8c12.1-33.7,37.4-56.3,61.5-80.5c9.2-9.2,16.7-21.6,27.6-27.6c10.3-5.8,24.4-7.8,36.5-6.7
		c13.5,1.4,17.8,25,10.3,38.6c-8.6,1.2-18.1-0.3-21.6,3.5c-5.5,6.1-8,15.5-10,23.8c-2,9.2-0.6,19.3-3.2,28.2
		c-4.3,15.5-9.2,31.3-27.6,37.1c-4.6,1.4-8.3,5.8-12.6,9.2c22.2,16.1,27.3,31.6,17.8,56.6c-5.8,15.5-12.9,30.8-19.3,46.3
		c-11.5,28.2-9.4,56,2.9,83.7c2.6,5.5,7.5,10,11.2,14.9C185.4,514.3,186.5,513.5,188,512.9z"/>
</g>
</svg>
