<?xml version="1.0" encoding="utf-8"?>
<!-- Generator: Adobe Illustrator 17.1.0, SVG Export Plug-In . SVG Version: 6.00 Build 0)  -->
<!DOCTYPE svg PUBLIC "-//W3C//DTD SVG 1.1//EN" "http://www.w3.org/Graphics/SVG/1.1/DTD/svg11.dtd">
<svg version="1.1" id="Calque_1" xmlns="http://www.w3.org/2000/svg" xmlns:xlink="http://www.w3.org/1999/xlink" x="0px" y="0px"
	 viewBox="0 0 960 560" enable-background="new 0 0 960 560" xml:space="preserve">
<g>
	<path fill="#FFFFFF" d="M529.4,416c-11.3-14.9-21.2-28.3-31.9-41.2c-3.3-4.2-9.5-9.2-14.6-8.6c-4.8,3.6-5.4,12.5-3.9,17.6
		c5.4,15.8,11.3,31.6,19.4,45.9c5.4,9.5,5.7,15.2-1.2,23.6c-27.4,33.1-29.5,55.2-9.8,90.9c-4.5,13.1-13.7,16.4-26.5,14.9
		c-11.9-1.2-23.9-1.2-35.8-2.1c-8.1-0.6-18.8,1.2-20-10.4c-1.2-11.6,5.7-22.7,16.4-23.3c22.1-1.2,21.5-15.5,20.9-30.1
		c-3.3-68-12.5-134.5-51.6-193.2c-8.3-12.5-13.7-27.4-19.4-41.7c-8.9-21.8-13.4-43.5-5.7-68c3.9-12.5,0.6-28-1.8-41.7
		c-1.8-9.5-9.8-13.1-19.7-10.1c-20,6.6-37-2.4-53.7-11c-9.5-5.1-20-34.9-16.4-45.6c1.2-3.3,4.5-6.3,7.5-8.1
		c8.6-5.1,18.5-8.1,26.2-14c6.6-5.1,11-13.1,16.4-20c4.8-6.3,8.1-14.6,14.3-18.8C393.4-14.6,425-6,473.3,51.3
		c20,23.9,33.1,53.4,53.4,76.9c59,68.3,119.9,135.4,180.4,202.5c28.9,31.9,57.3,63.8,67.4,107.1c3,13.4,2.7,27.4,2.7,41.4
		c0,12.2,1.8,23.3,13.7,28.9c11.9,5.7,19.4-3,27.7-9.5c30.4-23.6,33.4-84.7-6.3-104.4c-9.8-5.1-18.5-13.4-25.6-22.4
		c-14-17-6.3-34.6,15.2-37.6c37-5.4,91.2,21.2,110,53.4c18.5,31.3,13.7,79.6-11.3,112.1c-25.6,33.1-59.6,54-101.1,56.1
		c-68.6,3-137.2,2.1-205.5,2.7c-11.3,0-16.1-7.2-11.6-17.9c14.3-35.8,7.2-65.9-21.2-91.5c-10.4-9.5-2.1-18.5,1.2-28
		c5.4-15.2,8.9-31,12.5-46.5c1.2-4.2-1.2-9.8-3.9-10.7c-5.4-1.2-9.2,1.8-11.3,4.8c-8.6,10.7-16.1,22.4-23.9,34
		C533.2,406.1,531.7,410.9,529.4,416z"/>
	<path fill="#FFFFFF" d="M149.5,532.3c-1.2-13.7-2.7-27.4-3.9-41.2c-2.7-33.4,9.5-60.5,33.7-83.8c22.1-21.2,43.5-43.5,63.8-66.5
		c6.9-7.8,8.9-19.4,14-28.9c7.2-13.1,14.9-26.2,23-38.8c4.8-7.5,10.1-14.3,15.8-21.2c5.4-6.3,11.3-12.2,19.4-17.6
		c3.3,21.2,14.6,33.4,30.4,43.5c6,3.9,8.1,13.7,11.3,21.2c1.2,2.7,0.6,6,1.2,8.6c5.7,26.5,5.4,28-20.6,37.3
		c-12.2,4.5-10.7,13.7-6.6,20.3c17.9,28.9,11.3,57-0.3,85.6c-9.2,23-14.9,46.5-9.8,71.3c1.8,8.3,2.1,17.9,14.3,19.7
		c2.7,0.3,7.2,7.5,6.6,9.8c-1.2,3.6-6.3,7.5-10.1,8.1c-13.7,2.7-24.7-0.9-27.7-16.7c-3.9-20.9-7.8-41.7-12.2-62.3
		c-1.5-7.8-4.2-15.2-6.6-23.3c-0.6,16.1,1.5,31-3,44.1c-4.5,12.8-15.2,23.6-24.5,37c8.3,0,17.3-0.6,25.9,0.3
		c10.4,0.9,17.3,6.6,18.8,19.7c-5.4,0.6-10.4,1.8-15.8,1.8c-40.3,0.3-80.5-0.3-120.8,0.3c-15.5,0.3-26.5-5.7-35.8-17.3
		c-31-39.1-30.1-82.3-15.5-127c5.1-15.5,9.8-31.3,14-47.1c3.6-14,3.3-14-10.7-25.3C98.8,392.7,97,447,70.1,492.6
		c-1.2-0.3-2.4-0.9-3.6-1.2c3.9-46.5,7.5-93.3,11.6-143.1c-14.9,8.3-27.4,15.2-39.4,22.1c-6.3-11.6,1.8-18.8,7.5-27.4
		c8.6-13.4,17-27.4,22.4-42.3c12.5-34.9,38.8-58.4,63.8-83.5c9.5-9.5,17.3-22.4,28.6-28.6c10.7-6,25.3-8.1,37.9-6.9
		c14,1.5,18.5,25.9,10.7,40c-8.9,1.2-18.8-0.3-22.4,3.6c-5.7,6.3-8.3,16.1-10.4,24.7c-2.1,9.5-0.6,20-3.3,29.2
		c-4.5,16.1-9.5,32.5-28.6,38.5c-4.8,1.5-8.6,6-13.1,9.5c23,16.7,28.3,32.8,18.5,58.7c-6,16.1-13.4,31.9-20,48
		c-11.9,29.2-9.8,58.1,3,86.8c2.7,5.7,7.8,10.4,11.6,15.5C146.8,533.8,148,532.9,149.5,532.3z"/>
</g>
</svg>
