<?xml version="1.0" encoding="utf-8"?>
<!-- Generator: Adobe Illustrator 17.1.0, SVG Export Plug-In . SVG Version: 6.00 Build 0)  -->
<!DOCTYPE svg PUBLIC "-//W3C//DTD SVG 1.1//EN" "http://www.w3.org/Graphics/SVG/1.1/DTD/svg11.dtd">
<svg version="1.1" id="Calque_1" xmlns="http://www.w3.org/2000/svg" xmlns:xlink="http://www.w3.org/1999/xlink" x="0px" y="0px"
	 viewBox="675.1 76.5 2060.1 394.5" enable-background="new 675.1 76.5 2060.1 394.5" xml:space="preserve">
<g>
	<path fill="#B0976D" d="M944.8,331.3c-6.2-8.2-11.6-15.5-17.5-22.5c-1.8-2.3-5.2-5-8-4.7c-2.6,2-3,6.8-2.1,9.6
		c3,8.6,6.2,17.3,10.6,25.1c3,5.2,3.1,8.3-0.7,12.9c-15,18.1-16.1,30.2-5.4,49.7c-2.5,7.2-7.5,9-14.5,8.2
		c-6.5-0.7-13.1-0.7-19.6-1.1c-4.4-0.3-10.3,0.7-10.9-5.7c-0.7-6.3,3.1-12.4,9-12.7c12.1-0.7,11.8-8.5,11.4-16.5
		c-1.8-37.2-6.8-73.6-28.2-105.7c-4.5-6.8-7.5-15-10.6-22.8c-4.9-11.9-7.3-23.8-3.1-37.2c2.1-6.8,0.3-15.3-1-22.8
		c-1-5.2-5.4-7.2-10.8-5.5c-10.9,3.6-20.2-1.3-29.4-6c-5.2-2.8-10.9-19.1-9-24.9c0.7-1.8,2.5-3.4,4.1-4.4c4.7-2.8,10.1-4.4,14.3-7.7
		c3.6-2.8,6-7.2,9-10.9c2.6-3.4,4.4-8,7.8-10.3c30-19.5,47.3-14.8,73.7,16.6c10.9,13.1,18.1,29.2,29.2,42.1
		c32.3,37.4,65.6,74.1,98.7,110.8c15.8,17.5,31.3,34.9,36.9,58.6c1.6,7.3,1.5,15,1.5,22.6c0,6.7,1,12.7,7.5,15.8
		c6.5,3.1,10.6-1.6,15.2-5.2c16.6-12.9,18.3-46.3-3.4-57.1c-5.4-2.8-10.1-7.3-14-12.3c-7.7-9.3-3.4-18.9,8.3-20.6
		c20.2-3,49.9,11.6,60.2,29.2c10.1,17.1,7.5,43.5-6.2,61.3c-14,18.1-32.6,29.5-55.3,30.7c-37.5,1.6-75.1,1.1-112.4,1.5
		c-6.2,0-8.8-3.9-6.3-9.8c7.8-19.6,3.9-36.1-11.6-50.1c-5.7-5.2-1.1-10.1,0.7-15.3c3-8.3,4.9-17,6.8-25.4c0.7-2.3-0.7-5.4-2.1-5.9
		c-3-0.7-5,1-6.2,2.6c-4.7,5.9-8.8,12.3-13.1,18.6C946.9,325.9,946,328.5,944.8,331.3z"/>
	<path fill="#B0976D" d="M736.9,394.9c-0.7-7.5-1.5-15-2.1-22.5c-1.5-18.3,5.2-33.1,18.4-45.8c12.1-11.6,23.8-23.8,34.9-36.4
		c3.8-4.3,4.9-10.6,7.7-15.8c3.9-7.2,8.2-14.3,12.6-21.2c2.6-4.1,5.5-7.8,8.6-11.6c3-3.4,6.2-6.7,10.6-9.6
		c1.8,11.6,8,18.3,16.6,23.8c3.3,2.1,4.4,7.5,6.2,11.6c0.7,1.5,0.3,3.3,0.7,4.7c3.1,14.5,3,15.3-11.3,20.4
		c-6.7,2.5-5.9,7.5-3.6,11.1c9.8,15.8,6.2,31.2-0.2,46.8c-5,12.6-8.2,25.4-5.4,39c1,4.5,1.1,9.8,7.8,10.8c1.5,0.2,3.9,4.1,3.6,5.4
		c-0.7,2-3.4,4.1-5.5,4.4c-7.5,1.5-13.5-0.5-15.2-9.1c-2.1-11.4-4.3-22.8-6.7-34.1c-0.8-4.3-2.3-8.3-3.6-12.7
		c-0.3,8.8,0.8,17-1.6,24.1c-2.5,7-8.3,12.9-13.4,20.2c4.5,0,9.5-0.3,14.2,0.2c5.7,0.5,9.5,3.6,10.3,10.8c-3,0.3-5.7,1-8.6,1
		c-22,0.2-44-0.2-66.1,0.2c-8.5,0.2-14.5-3.1-19.6-9.5c-17-21.4-16.5-45-8.5-69.5c2.8-8.5,5.4-17.1,7.7-25.8c2-7.7,1.8-7.7-5.9-13.8
		c-10.4,26.7-11.4,56.4-26.1,81.4c-0.7-0.2-1.3-0.5-2-0.7c2.1-25.4,4.1-51,6.3-78.3c-8.2,4.5-15,8.3-21.6,12.1
		c-3.4-6.3,1-10.3,4.1-15c4.7-7.3,9.3-15,12.3-23.1c6.8-19.1,21.2-31.9,34.9-45.7c5.2-5.2,9.5-12.3,15.6-15.6
		c5.9-3.3,13.8-4.4,20.7-3.8c7.7,0.8,10.1,14.2,5.9,21.9c-4.9,0.7-10.3-0.2-12.3,2c-3.1,3.4-4.5,8.8-5.7,13.5
		c-1.1,5.2-0.3,10.9-1.8,16c-2.5,8.8-5.2,17.8-15.6,21.1c-2.6,0.8-4.7,3.3-7.2,5.2c12.6,9.1,15.5,17.9,10.1,32.1
		c-3.3,8.8-7.3,17.5-10.9,26.3c-6.5,16-5.4,31.8,1.6,47.5c1.5,3.1,4.3,5.7,6.3,8.5C735.5,395.7,736.1,395.2,736.9,394.9z"/>
</g>
<g>
	<path fill="#B0976D" d="M1290.2,109v13.5c-6.6-5.5-13.4-8.3-20.4-8.3c-7.7,0-14.3,2.8-19.6,8.3c-5.3,5.5-8,12.3-8,20.3
		c0,7.9,2.7,14.6,8,20c5.3,5.4,11.9,8.2,19.6,8.2c4,0,7.4-0.7,10.2-2c1.6-0.7,3.2-1.5,4.9-2.6c1.7-1.1,3.4-2.4,5.3-4v13.7
		c-6.5,3.7-13.3,5.5-20.5,5.5c-10.8,0-20-3.8-27.6-11.3c-7.6-7.6-11.4-16.7-11.4-27.4c0-9.6,3.2-18.2,9.5-25.7
		c7.8-9.2,17.9-13.8,30.3-13.8C1277.3,103.5,1283.9,105.3,1290.2,109z"/>
	<path fill="#B0976D" d="M1332.9,105v64.7h22.2v10.7h-33.5V105H1332.9z"/>
	<path fill="#B0976D" d="M1394.3,105v75.4h-11.4V105H1394.3z"/>
	<path fill="#B0976D" d="M1429.4,180.4V99.8l55,57.5V105h11.4v80l-55-57.4v52.8H1429.4z"/>
	<path fill="#B0976D" d="M1542.2,105v75.4h-11.4V105H1542.2z"/>
	<path fill="#B0976D" d="M1654,181.7h-14.3l-5.9-6.1c-6.3,4-13.3,6.1-21,6.1c-10,0-18.9-3.4-26.6-10.2c-8.4-7.5-12.6-17-12.6-28.6
		c0-11.4,4-20.8,12-28.4c7.7-7.4,16.9-11,27.4-11c9.6,0,18.1,3.2,25.7,9.7c9.1,7.7,13.7,17.9,13.7,30.3c0,9.8-3.6,18.4-10.8,26
		L1654,181.7z M1622.7,150.5l10.9,10.9c4.8-5,7.2-11.2,7.2-18.6c0-8.1-2.7-14.9-8.1-20.4s-12-8.2-20-8.2c-8.1,0-14.7,2.7-19.9,8.2
		c-5.2,5.4-7.9,12.3-7.9,20.7c0,8.1,2.7,14.8,8.1,20c5.6,5.3,12.1,8,19.3,8c4.9,0,9.4-1.1,13.3-3.4l-17.7-17.2H1622.7z"/>
	<path fill="#B0976D" d="M1695,105v45.4c0,6.5,1.1,11.2,3.2,14.2c3.2,4.3,7.6,6.5,13.3,6.5c5.8,0,10.2-2.2,13.4-6.5
		c2.1-2.9,3.2-7.6,3.2-14.2V105h11.4v48.5c0,7.9-2.5,14.5-7.4,19.6c-5.6,5.7-12.4,8.6-20.5,8.6s-14.9-2.9-20.5-8.6
		c-4.9-5.1-7.4-11.7-7.4-19.6V105H1695z"/>
	<path fill="#B0976D" d="M1816.1,115.7h-30.2v18.1h29.3v10.7h-29.3v25.2h30.2v10.7h-41.6V105h41.6V115.7z"/>
	<path fill="#B0976D" d="M1899.7,105l20.8,52.2l21.1-52.2h12.5l-33.8,81.1l-33.1-81.1H1899.7z"/>
	<path fill="#B0976D" d="M2022.2,115.7h-30.2v18.1h29.3v10.7h-29.3v25.2h30.2v10.7h-41.6V105h41.6V115.7z M2018.5,84.7l-19.9,13.5
		l-5.4-4.5l15.7-15.7L2018.5,84.7z"/>
	<path fill="#B0976D" d="M2074.9,115.7v64.7h-11.4v-64.7h-17.3V105h46v10.7H2074.9z"/>
	<path fill="#B0976D" d="M2160.9,115.7h-30.2v18.1h29.3v10.7h-29.3v25.2h30.2v10.7h-41.6V105h41.6V115.7z M2157.3,84.7l-19.9,13.5
		l-5.4-4.5l15.7-15.7L2157.3,84.7z"/>
	<path fill="#B0976D" d="M2218.4,148.2l23.3,32.1h-13.9l-21.5-30.9h-2.1v30.9h-11.4V105h13.3c10,0,17.2,1.9,21.6,5.6
		c4.9,4.2,7.3,9.7,7.3,16.5c0,5.3-1.5,9.9-4.6,13.8C2227.5,144.7,2223.4,147.2,2218.4,148.2z M2204.3,139.6h3.6
		c10.8,0,16.2-4.1,16.2-12.4c0-7.7-5.2-11.6-15.7-11.6h-4.1V139.6z"/>
	<path fill="#B0976D" d="M2281.5,105v75.4h-11.4V105H2281.5z"/>
	<path fill="#B0976D" d="M2316.6,180.4V99.8l55,57.5V105h11.4v80l-55-57.4v52.8H2316.6z"/>
	<path fill="#B0976D" d="M2462.3,162.1H2430l-8.4,18.3h-12.3l37.3-80.1l36,80.1h-12.5L2462.3,162.1z M2457.7,151.4l-11.2-25.6
		l-11.7,25.6H2457.7z"/>
	<path fill="#B0976D" d="M2520.5,105v75.4h-11.4V105H2520.5z"/>
	<path fill="#B0976D" d="M2581.1,148.2l23.3,32.1h-13.9l-21.5-30.9h-2.1v30.9h-11.4V105h13.3c10,0,17.2,1.9,21.6,5.6
		c4.9,4.2,7.3,9.7,7.3,16.5c0,5.3-1.5,9.9-4.6,13.8C2590.2,144.7,2586.1,147.2,2581.1,148.2z M2567,139.6h3.6
		c10.8,0,16.2-4.1,16.2-12.4c0-7.7-5.2-11.6-15.7-11.6h-4.1V139.6z"/>
	<path fill="#B0976D" d="M2674.4,115.7h-30.2v18.1h29.3v10.7h-29.3v25.2h30.2v10.7h-41.6V105h41.6V115.7z"/>
	<path fill="#B0976D" d="M1244.4,410.4V252h33.2c15.9,0,28.5,1.6,37.7,4.7c9.9,3.1,18.9,8.3,27,15.7c16.3,14.9,24.5,34.5,24.5,58.8
		c0,24.3-8.5,44-25.5,59.1c-8.5,7.5-17.5,12.8-26.9,15.7c-8.8,2.9-21.2,4.4-37.2,4.4H1244.4z M1268.3,387.9h10.8
		c10.7,0,19.7-1.1,26.8-3.4c7.1-2.4,13.5-6.2,19.3-11.4c11.8-10.7,17.6-24.7,17.6-41.9c0-17.4-5.8-31.4-17.4-42.2
		c-10.5-9.6-25.9-14.5-46.2-14.5h-10.8V387.9z"/>
	<path fill="#B0976D" d="M1423.3,252v95.4c0,13.6,2.2,23.6,6.7,29.8c6.6,9.1,16,13.6,28,13.6c12.1,0,21.5-4.5,28.1-13.6
		c4.4-6.1,6.7-16,6.7-29.8V252h23.9V354c0,16.7-5.2,30.4-15.6,41.2c-11.7,12-26,18-43.1,18s-31.3-6-43-18
		c-10.4-10.8-15.6-24.5-15.6-41.2V252H1423.3z"/>
	<path fill="#B0976D" d="M1618.9,410.4l33.3-170.2l54.3,123l56.3-123l29.9,170.2h-24.5l-15.3-95.6l-46.9,102.8l-45.5-102.9l-17,95.7
		H1618.9z"/>
	<path fill="#B0976D" d="M1921.8,371.9H1854l-17.6,38.5h-25.7l78.3-168.3l75.6,168.3h-26.1L1921.8,371.9z M1912.1,349.5l-23.5-53.8
		l-24.6,53.8H1912.1z"/>
	<path fill="#B0976D" d="M2010.8,252v158.3h-23.9V252H2010.8z"/>
	<path fill="#B0976D" d="M2075.2,252v135.9h46.6v22.5h-70.4V252H2075.2z"/>
	<path fill="#B0976D" d="M2170.9,252v135.9h46.6v22.5H2147V252H2170.9z"/>
	<path fill="#B0976D" d="M2234.7,330.5c0-22.3,8.2-41.4,24.5-57.4c16.3-16,35.8-24,58.7-24c22.6,0,41.9,8.1,58,24.2
		c16.2,16.1,24.3,35.5,24.3,58.1c0,22.8-8.1,42.1-24.4,57.9c-16.3,15.9-36.1,23.9-59.2,23.9c-20.4,0-38.8-7.1-55.1-21.2
		C2243.7,376.4,2234.7,355.8,2234.7,330.5z M2258.8,330.8c0,17.5,5.9,31.9,17.6,43.2c11.7,11.3,25.2,16.9,40.5,16.9
		c16.6,0,30.6-5.7,42-17.2c11.4-11.6,17.1-25.8,17.1-42.5c0-16.9-5.6-31-16.9-42.5c-11.2-11.5-25.1-17.2-41.6-17.2
		c-16.5,0-30.4,5.7-41.7,17.2C2264.5,300.1,2258.8,314.1,2258.8,330.8z"/>
	<path fill="#B0976D" d="M2456.7,252v95.4c0,13.6,2.2,23.6,6.7,29.8c6.6,9.1,16,13.6,28,13.6c12.1,0,21.5-4.5,28.1-13.6
		c4.4-6.1,6.7-16,6.7-29.8V252h23.9V354c0,16.7-5.2,30.4-15.6,41.2c-11.7,12-26,18-43.1,18s-31.3-6-43-18
		c-10.4-10.8-15.6-24.5-15.6-41.2V252H2456.7z"/>
	<path fill="#B0976D" d="M2623.5,327.6L2580,252h27.2l30.2,53.6l31.8-53.6h27.4l-45.6,75.6l47.9,82.7H2672l-35.1-60.6l-36.1,60.6
		h-27.1L2623.5,327.6z"/>
</g>
</svg>
